<svg preserveAspectRatio="xMidYMid meet" data-bbox="0 0 306.6 224.93" viewBox="0 0 306.6 224.93" xmlns="http://www.w3.org/2000/svg" data-type="color" role="presentation" aria-hidden="true">
    <g>
        <path fill="#080717" d="m146.24 224.92-.48-14.52-38.12.14-6.55 14.38h45.15z" data-color="1"></path>
        <path d="M170.75 129.99H30.61c-4.87 0-8.82-3.95-8.82-8.82V9.82c0-4.87 3.95-8.82 8.82-8.82h140.15c4.87 0 8.82 3.95 8.82 8.82v111.35c-.01 4.87-3.96 8.82-8.83 8.82z" fill="#ffffff" data-color="2"></path>
        <path d="M170.75 130.99H30.61c-5.41 0-9.82-4.4-9.82-9.82V9.82c0-5.41 4.4-9.82 9.82-9.82h140.15c5.41 0 9.82 4.4 9.82 9.82v111.35c-.01 5.41-4.41 9.82-9.83 9.82zM30.61 2c-4.31 0-7.82 3.51-7.82 7.82v111.35c0 4.31 3.51 7.82 7.82 7.82h140.15c4.31 0 7.82-3.51 7.82-7.82V9.82c0-4.31-3.51-7.82-7.82-7.82H30.61z" fill="#080717" data-color="1"></path>
        <path d="M32.38 13.98c-2.2 0-3.99-1.79-3.99-3.99S30.18 6 32.38 6s3.99 1.79 3.99 3.99-1.79 3.99-3.99 3.99zm0-5.99c-1.1 0-1.99.89-1.99 1.99s.89 1.99 1.99 1.99 1.99-.89 1.99-1.99-.89-1.99-1.99-1.99z" fill="#080717" data-color="1"></path>
        <path d="M42.46 13.98c-2.2 0-3.99-1.79-3.99-3.99S40.26 6 42.46 6s3.99 1.79 3.99 3.99-1.79 3.99-3.99 3.99zm0-5.99c-1.1 0-1.99.89-1.99 1.99s.89 1.99 1.99 1.99a1.989 1.989 0 1 0 0-3.98z" fill="#080717" data-color="1"></path>
        <path d="M52.53 13.98c-2.2 0-3.99-1.79-3.99-3.99S50.33 6 52.53 6s3.99 1.79 3.99 3.99c.01 2.2-1.79 3.99-3.99 3.99zm0-5.99a1.989 1.989 0 1 0 0 3.98c1.1 0 1.99-.89 1.99-1.99s-.89-1.99-1.99-1.99z" fill="#080717" data-color="1"></path>
        <path fill="#080717" d="m149.93 110.335-15.162 36.82-14.582-6.005 15.163-36.82 14.582 6.005z" data-color="1"></path>
        <path fill="#080717" d="M164.77 29.923c18.1 5.55 27.232 28.124 20.396 50.423-6.836 22.299-27.052 35.877-45.152 30.328-18.1-5.55-27.233-28.125-20.397-50.423 6.836-22.299 27.052-35.877 45.153-30.328z" data-color="1"></path>
        <path d="M148.35 112.93c-2.92 0-5.82-.43-8.64-1.29-18.6-5.7-28.05-28.88-21.06-51.67 3.37-11 10.03-20.29 18.75-26.14 8.78-5.9 18.6-7.62 27.65-4.85 9.05 2.77 16.22 9.7 20.18 19.51 3.94 9.74 4.25 21.16.88 32.16-3.37 11-10.03 20.29-18.75 26.14-6.04 4.06-12.57 6.14-19.01 6.14zm8.08-83.25c-6.05 0-12.2 1.96-17.9 5.8-8.34 5.6-14.71 14.5-17.95 25.07-6.66 21.74 2.19 43.8 19.73 49.18 8.46 2.59 17.68.96 25.95-4.59 8.34-5.6 14.71-14.5 17.95-25.07 3.24-10.57 2.95-21.51-.82-30.83-3.74-9.24-10.45-15.76-18.92-18.35-2.62-.81-5.32-1.21-8.04-1.21zm28.73 50.67z" fill="#080717" data-color="1"></path>
        <path fill="#ffffff" d="M169.51 31.488c18.1 5.549 27.232 28.124 20.396 50.422-6.836 22.3-27.052 35.877-45.152 30.328-18.1-5.549-27.233-28.124-20.397-50.423 6.836-22.299 27.052-35.877 45.153-30.327z" data-color="2"></path>
        <path d="M153.03 114.48c-2.87 0-5.74-.41-8.56-1.28-9.05-2.77-16.22-9.7-20.18-19.51-3.94-9.74-4.25-21.16-.88-32.16 6.99-22.79 27.81-36.7 46.4-30.99 18.6 5.7 28.05 28.88 21.06 51.67-5.93 19.34-21.81 32.27-37.84 32.27zm8.2-83.22c-15.17 0-30.25 12.39-35.91 30.86-3.24 10.57-2.95 21.51.82 30.83 3.74 9.24 10.45 15.76 18.92 18.35 17.55 5.38 37.24-7.93 43.9-29.67l.96.29-.96-.29c6.66-21.74-2.19-43.8-19.73-49.18-2.64-.81-5.32-1.19-8-1.19z" fill="#080717" data-color="1"></path>
        <path fill="#ffffff" d="M167.668 37.503c15.409 4.723 23.183 23.936 17.365 42.914-5.819 18.978-23.025 30.532-38.433 25.809s-23.182-23.937-17.364-42.915c5.818-18.978 23.024-30.532 38.432-25.808z" data-color="2"></path>
        <path d="M153.71 108.3c-2.5 0-4.98-.37-7.4-1.11-7.74-2.37-13.88-8.3-17.27-16.69-3.36-8.32-3.63-18.07-.75-27.47 2.88-9.4 8.57-17.33 16.02-22.33 7.51-5.05 15.92-6.52 23.66-4.14 7.74 2.37 13.88 8.3 17.27 16.69 3.36 8.32 3.63 18.07.75 27.47-2.88 9.4-8.57 17.33-16.02 22.33-5.17 3.47-10.76 5.25-16.26 5.25zm6.87-70.85c-5.12 0-10.33 1.66-15.16 4.91-7.07 4.75-12.47 12.3-15.22 21.26s-2.5 18.24.69 26.14c3.16 7.82 8.85 13.34 16 15.53 7.16 2.2 14.96.81 21.96-3.89 7.07-4.75 12.47-12.3 15.22-21.26s2.5-18.24-.69-26.14c-3.16-7.82-8.85-13.34-16-15.53-2.22-.69-4.5-1.02-6.8-1.02z" fill="#080717" data-color="1"></path>
        <path fill="#ffffff" d="m254.47 183.5-37.85-23.78 6.65-41.25 38.29 6.17-7.09 58.86z" data-color="2"></path>
        <path d="M254.47 184.5c-.19 0-.37-.05-.53-.15l-37.85-23.78a1.01 1.01 0 0 1-.46-1.01l6.65-41.25c.04-.26.19-.5.4-.65.21-.16.48-.22.74-.18l38.3 6.17c.53.09.9.57.83 1.11l-7.09 58.86c-.04.34-.25.63-.56.78-.13.06-.28.1-.43.1zm-36.76-25.28 35.96 22.59 6.79-56.34-36.36-5.86-6.39 39.61z" fill="#080717" data-color="1"></path>
        <path d="M256.12 70.93s-21.07 11.77-25.47 9c-4.41-2.77-14.63-11.98-9.97-20.14s6.85-4.61 10.57-2.91c3.71 1.7 6.8-7.53 9.31-6.81 2.52.72 4.7 2.94 8.49 7.8 3.79 4.85 7.07 13.06 7.07 13.06z" fill="#080717" data-color="1"></path>
        <path d="M249.42 137.92c9.28-1.17 18.24-5.86 24.72-13.81 13.08-16.07 10.78-39.01-4.48-52.04-25.05-21.37-47.54-1.69-50.6 3.61-.72 1.24-1.41 2.44-2.09 3.6a39.248 39.248 0 0 0-3.57 5.64c-2.73 3.9-5.44 6.56-8.59 7.03-4.83.72-8.88 36.4 17.95 38.68l26.66 7.29z" fill="#ffffff" data-color="2"></path>
        <path d="M249.42 138.92c-.5 0-.93-.37-.99-.88-.07-.55.32-1.05.87-1.12 9.42-1.19 17.97-5.97 24.07-13.45C286 107.95 284.09 85.7 269 72.83c-9.02-7.7-18.55-10.74-28.31-9.05-11.41 1.97-19.33 9.89-20.77 12.4-.72 1.25-1.41 2.45-2.1 3.61-.02.03-.04.07-.07.1a38.256 38.256 0 0 0-3.48 5.5c-.02.04-.04.08-.07.11-3.28 4.68-6.14 6.98-9.27 7.44-.92.14-2.87 4.86-2.65 12.12.17 5.37 2.14 23.01 20.53 24.57.55.05.96.53.91 1.08-.05.55-.53.97-1.08.91-7.62-.65-13.48-3.92-17.4-9.72-3-4.43-4.76-10.4-4.96-16.79-.21-6.62 1.37-13.72 4.35-14.16 2.53-.38 4.96-2.4 7.88-6.56 1.02-1.97 2.23-3.88 3.59-5.68.67-1.14 1.35-2.32 2.06-3.54 2.13-3.7 10.81-11.42 22.16-13.38 10.38-1.8 20.45 1.4 29.95 9.5 15.92 13.58 17.95 37.05 4.61 53.43-6.42 7.88-15.43 12.92-25.37 14.17-.01.03-.05.03-.09.03z" fill="#080717" data-color="1"></path>
        <path d="M277.18 67.08c-10.4-8.47-23.94-10.56-36.14-6.87 3.31 1.47 6.47 3.35 9.38 5.72 19.75 16.08 21.08 47.13 2.98 69.35a59.208 59.208 0 0 1-3.13 3.53c11.78-.02 23.6-5.25 31.77-15.29 14.2-17.42 12.02-42.69-4.86-56.44z" fill="#080717" data-color="1"></path>
        <path d="M243.04 81.62c2.27-5.15 9.03-3.14 4.91-6.67-7.8-6.68-8.94-17.7-8.94-17.7 22.57-1.83 38.91 34.4 38.91 34.4l-13.46 41.88-5.25 9.33-10.68-2.94a8.395 8.395 0 0 1-6.16-7.82l-.62-19.2c.14.14.29.27.44.4 3.72 3.03 9.19 2.47 12.21-1.25 3.03-3.72 2.47-9.19-1.25-12.22s-9.19-2.47-12.22 1.25c-.02.02-.03.04-.05.06-1.08-.64-3.51-2.36-2.19-4.32 1.7-2.49 2.08-10.05 4.35-15.2z" fill="#080717" data-color="1"></path>
        <path d="M207.74 110.71c-.16 0-.32-.01-.49-.02a.997.997 0 1 1 .15-1.99c2.73.2 4.67-2.11 4.68-2.13a1 1 0 0 1 1.41-.14c.43.35.49.98.14 1.4-.1.12-2.39 2.88-5.89 2.88z" fill="#080717" data-color="1"></path>
        <path d="M243.89 106.63a.96.96 0 0 1-.51-.14c-.47-.28-.63-.89-.35-1.37.08-.14 2.09-3.49 5.87-3.79.55-.03 1.03.37 1.08.92.04.55-.37 1.03-.92 1.08-2.72.22-4.29 2.79-4.31 2.82a.98.98 0 0 1-.86.48z" fill="#080717" data-color="1"></path>
        <path d="M228.31 85.55a1.006 1.006 0 0 1-.95-1.31c.3-.91-.12-2.79-1.35-4.33-.72-.91-2.3-2.38-4.77-2.18a.985.985 0 0 1-1.08-.91.992.992 0 0 1 .91-1.08c2.53-.22 4.84.82 6.51 2.93 1.55 1.95 2.24 4.5 1.68 6.2-.14.41-.53.68-.95.68z" fill="#080717" data-color="1"></path>
        <path d="M219.4 88.96c-.81.78-1.92.95-2.48.37s-.37-1.68.44-2.47c.81-.78 1.92-.95 2.48-.37s.36 1.69-.44 2.47z" fill="#080717" data-color="1"></path>
        <path d="m221.51 129.5-2.13 13.2a28.377 28.377 0 0 0 15.77-9.78c1.67-2.05 3-4.27 4.01-6.58-5.4 2.94-11.62 4.02-17.65 3.16z" fill="#080717" data-color="1"></path>
        <path d="m144.9 118.95-.49.31c-1.57 1.43-2.6 3.19-2.98 5.06l-1.77 8.86c-.38 1.89-3.79 1.95-4.27.08l-3.48-13.36 5.05-10.86-12.89 2.66-9.91 19.45c-3.21 6.3-1.7 13.49 3.91 18.63l12.16 11.14-22.42 49.22h38.12l5.05-82.03-.31-7.06c-.11-2.31-3.49-3.54-5.77-2.1z" fill="#ffffff" data-color="2"></path>
        <path d="M145.93 211.13h-38.12c-.34 0-.66-.17-.84-.46-.18-.29-.21-.65-.07-.96l22.12-48.55-11.62-10.65c-5.99-5.48-7.57-13.08-4.13-19.83l9.91-19.45c.14-.27.39-.46.69-.53l12.89-2.66c.37-.07.75.06.99.36.23.3.28.7.12 1.04l-4.9 10.56 3.39 13.01c.12.45.72.63 1.21.62.37-.01 1.02-.16 1.11-.65l1.77-8.86c.42-2.09 1.55-4.03 3.28-5.61.04-.04.09-.08.14-.11l.49-.31c1.52-.96 3.56-1.03 5.18-.18 1.29.67 2.06 1.8 2.12 3.08l.31 7.06v.11l-5.05 82.03a.99.99 0 0 1-.99.94zm-36.57-2h35.62l4.98-81.04-.31-7c-.03-.76-.67-1.2-1.04-1.4-.82-.43-2.13-.57-3.19.1l-.41.26c-1.38 1.28-2.28 2.82-2.61 4.46l-1.77 8.86c-.26 1.3-1.47 2.21-3.02 2.25-1.56.03-2.86-.81-3.2-2.12l-3.48-13.36a.971.971 0 0 1 .06-.67l4.21-9.06-10.48 2.16-9.69 19.02c-3.01 5.91-1.59 12.59 3.7 17.44l12.16 11.14c.32.29.41.76.23 1.15l-21.76 47.81zm35.54-90.18z" fill="#080717" data-color="1"></path>
        <path d="m119.58 128.55 4.2-16.63-4.2 16.63z" fill="#ffffff" data-color="2"></path>
        <path d="M119.58 129.54a.99.99 0 0 1-.97-1.24l4.2-16.63c.14-.54.68-.85 1.21-.72.54.14.86.68.72 1.21l-4.2 16.63c-.1.45-.51.75-.96.75z" fill="#080717" data-color="1"></path>
        <path fill="#080717" d="m210.83 165.77 3.99-21.95 47.66 2.37 6.21 17.58-57.86 2z" data-color="1"></path>
        <path d="m152.97 224.92 23.24-45.98a33.965 33.965 0 0 1 25.1-18.72l58.75-9.61c18.54-3.03 36.02 9.55 39.03 28.09l7.51 46.23H152.97z" fill="#080717" data-color="1"></path>
        <path d="M91.11 35.08H15.3C6.85 35.08 0 41.93 0 50.38v14.63c0 8.45 6.85 15.3 15.3 15.3h56.53l18.62 18.62V80.31h.66c8.45 0 15.3-6.85 15.3-15.3V50.38c0-8.45-6.85-15.3-15.3-15.3z" fill="#ffb000" data-color="3"></path>
        <path d="M39.05 66.13c-.17 0-.34-.04-.5-.13l-14.22-8.21c-.31-.18-.5-.51-.5-.87s.19-.69.5-.87l14.22-8.21c.48-.28 1.09-.11 1.37.37s.11 1.09-.37 1.37l-12.72 7.35 12.72 7.35c.48.28.64.89.37 1.37-.19.3-.52.48-.87.48z" fill="#080717" data-color="1"></path>
        <path d="M63.37 66.13a1.002 1.002 0 0 1-.5-1.87l12.72-7.35-12.72-7.35a1.01 1.01 0 0 1-.37-1.37c.28-.48.89-.64 1.37-.37l14.22 8.21c.31.18.5.51.5.87s-.19.69-.5.87L63.87 66c-.16.09-.33.13-.5.13z" fill="#080717" data-color="1"></path>
        <path d="M44.87 73.88a.998.998 0 0 1-.94-1.34L55.5 40.62c.19-.52.76-.78 1.28-.6.52.19.79.76.6 1.28L45.81 73.22c-.14.41-.53.66-.94.66z" fill="#080717" data-color="1"></path>
    </g>
</svg>