<svg preserveAspectRatio="xMidYMid meet" data-bbox="0.003 0 217.04 232.156" viewBox="0.003 0 217.04 232.156" xmlns="http://www.w3.org/2000/svg" data-type="color" role="presentation" aria-hidden="true" aria-label="">
    <g>
        <path d="m113.39 91.68 59.86 5.5 40.49 72.77a26.195 26.195 0 0 1-4.77 31.65c-9.52 9.12-24.34 9.73-34.58 1.44l-40.22-32.55-20.78-78.81z" fill="#080717" data-color="1"></path>
        <path d="M106.67 95.34 68.8 106.66a64.185 64.185 0 0 0-34.19 24.68L3.08 176.4c-4.62 8.31-4 18.54 1.61 26.22a24.368 24.368 0 0 0 19.69 10.01h4.79c6.59 0 12.91-2.67 17.5-7.41l51.46-53.07 8.54-56.81z" fill="#080717" data-color="1"></path>
        <path d="M118.64 77.79s7.78-3.5 8.55-7.78c.78-4.28-.39-8.55 1.56-12.05 1.94-3.5 13.03-5.06-5.06-22.55-18.08-17.51-48.6-46.86-50.16-30.73s2.92 22.55 3.11 25.08c.19 2.53-7.78 20.61-11.28 28.77-3.5 8.17-3.03 12.08-.97 17.5 3.52 9.27 13.8 15.55 23.72 20.03 9.92 4.47 28.2-7.58 30.53-18.27z" fill="#000000" data-color="2"></path>
        <path d="M65.95 56.4s6.22-2.33 11.67 1.56c5.44 3.89 9.92 9.92 17.3 9.92 7.39 0 8.36-10.86 8.36-20.61 0-5.83-8.55-10.29-8.55-17.69 0-.39-1.56 2.33-8.55-1.56-7-3.89-12.05-8.94-12.05-8.94s-3.11 17.89-5.06 21.39c-1.94 3.5-6.22 8.55-6.22 8.55s-.79 3.88 3.1 7.38z" fill="#ffffff" data-color="3"></path>
        <path d="M94.92 68.87c-5.85 0-9.92-3.48-13.86-6.85-1.3-1.12-2.65-2.27-4.02-3.25-4.95-3.54-10.68-1.45-10.73-1.43-.35.13-.74.06-1.02-.19-4.26-3.84-3.46-8.15-3.42-8.33.03-.17.11-.32.22-.45.04-.05 4.24-5.02 6.11-8.39 1.53-2.75 4.09-16.14 4.94-21.07a.99.99 0 0 1 .68-.78c.36-.11.75-.02 1.01.25.05.05 5.05 5.01 11.83 8.78 1.96 1.09 5.52 2.74 7.38 1.61.16-.09.64-.38 1.17-.09.31.18.52.55.52.91 0 3.58 2.26 6.49 4.45 9.31 2.11 2.72 4.11 5.29 4.11 8.38-.01 10.04-1.07 21.59-9.37 21.59zM70.38 54.7c2.3 0 5.14.53 7.82 2.44 1.44 1.03 2.83 2.21 4.16 3.36 3.83 3.28 7.45 6.37 12.56 6.37 6.52 0 7.36-10.48 7.36-19.61 0-2.4-1.79-4.71-3.69-7.15-2.03-2.61-4.29-5.54-4.77-9.14-2.04.5-4.76-.2-8.13-2.08-4.97-2.76-8.93-6.05-10.91-7.83-.86 4.69-3.2 16.92-4.84 19.88-1.76 3.16-5.28 7.46-6.14 8.49-.07.77-.09 3.33 2.42 5.83.79-.22 2.3-.56 4.16-.56z" fill="#000000" data-color="2"></path>
        <path d="M74.81 21.42c-.34 0-.68-.18-.86-.49C70.47 15 69.18 7.73 70.42.98a.99.99 0 0 1 1.16-.8c.54.1.9.62.8 1.16-1.15 6.29.05 13.06 3.29 18.57.28.48.12 1.09-.36 1.37-.15.09-.33.14-.5.14z" fill="#080717" data-color="1"></path>
        <path d="M76.89 71.11c-1.37 0-2.73-.3-3.96-.91a1 1 0 1 1 .89-1.79c2.48 1.23 5.68.82 7.77-1a.998.998 0 0 1 1.41.1c.36.42.32 1.05-.1 1.41-1.65 1.44-3.83 2.19-6.01 2.19z" fill="#ffffff" data-color="3"></path>
        <path d="M116.36 56.1c-.53 0-.98-.42-1-.96a10.63 10.63 0 0 1 3.65-8.42.999.999 0 1 1 1.3 1.52c-1.93 1.66-3.06 4.27-2.96 6.82.02.55-.41 1.02-.96 1.04h-.03z" fill="#080717" data-color="1"></path>
        <path d="M84.18 46.79c-.42 0-.82-.27-.95-.7-.27-.84-.94-1.55-1.86-1.95-.91-.4-1.9-.43-2.69-.06-.5.23-1.09.01-1.33-.49-.23-.5-.01-1.1.49-1.33 1.32-.61 2.9-.59 4.34.05s2.52 1.79 2.96 3.17a.999.999 0 0 1-.65 1.26c-.1.03-.21.05-.31.05z" fill="#080717" data-color="1"></path>
        <path d="M85 37.46c-.09 0-.19-.01-.28-.04-1.33-.39-2.71-.56-4.09-.51-.55.07-1.01-.41-1.03-.96a.989.989 0 0 1 .96-1.03 15.1 15.1 0 0 1 4.72.58c.53.15.84.71.68 1.24-.13.43-.53.72-.96.72z" fill="#080717" data-color="1"></path>
        <path d="M134.43 93.5c-9.08-5.86-15.24-28.56-15.24-28.56s7.05-18.02 4.31-22.33-13.32 6.27-13.32 6.27 5.88 25.86.78 34.48c-5.09 8.62-25.07 9.79-25.07 9.79s5.75 11.47 8.94 28.46c16.09-6.75 29.72-16.44 39.6-28.11z" fill="#ffffff" data-color="3"></path>
        <path d="M94.83 122.61a.997.997 0 0 1-.98-.82c-3.14-16.66-8.8-28.08-8.85-28.19a1.006 1.006 0 0 1 .84-1.45c.19-.01 19.51-1.24 24.27-9.3 4.83-8.18-.84-33.49-.9-33.74-.08-.33.02-.69.27-.93.82-.83 8.17-8.03 12.49-7.57 1.01.11 1.83.62 2.38 1.47 2.81 4.41-2.96 19.96-4.1 22.92.78 2.73 6.64 22.44 14.73 27.67.24.16.4.41.45.69.04.28-.04.57-.23.79-9.98 11.78-23.8 21.59-39.98 28.38-.13.05-.26.08-.39.08zM87.4 94.03c1.54 3.41 5.59 13.14 8.17 26.17 15.02-6.48 27.9-15.62 37.38-26.52-8.77-6.81-14.49-27.57-14.73-28.48-.06-.21-.04-.43.03-.63 2.65-6.79 6.2-18.6 4.4-21.43-.22-.34-.5-.51-.91-.56-2.43-.28-7.53 3.76-10.47 6.61.85 3.9 5.43 26.41.55 34.66-4.53 7.69-19.61 9.72-24.42 10.18z" fill="#000000" data-color="2"></path>
        <path d="m67.83 229.51-23.47-53.12 66.8-65.16 50.57-15.27 37.9 133.56c-.01-.01-134.96-2.49-131.8-.01z" fill="#080717" data-color="1"></path>
        <path d="m208.95 48.72-24.61 26.07c-4.3 4.55-11.49 4.76-16.04.46l-8.25-7.79c-4.56-4.3-4.76-11.49-.46-16.04l24.61-26.07c-14.12-4.58-30.24-1.04-41.12 10.48-10.87 11.51-14.9 29.3-9.53 43.15L94.6 120.22l-31.17 33c-14.13-4.57-31.66.47-42.53 11.98-10.88 11.52-13.49 27.81-8.11 41.65l24.61-26.07c4.3-4.55 11.49-4.76 16.04-.46l8.25 7.79c4.56 4.3 4.76 11.49.46 16.04l-24.61 26.07c14.12 4.57 30.24 1.04 41.12-10.48 10.87-11.51 14.89-29.3 9.53-43.15l38.96-41.25 31.17-33c14.13 4.57 31.66-.47 42.53-11.98 10.87-11.51 13.48-27.81 8.1-41.64z" fill="#ffb000" data-color="4"></path>
        <path d="m75.96 120.81 8.78-8.78 19.73.3c1.66.03 2.93 1.48 2.73 3.13a7.197 7.197 0 0 1-6.4 6.3l-17.83 1.86-7.01-2.81z" fill="#ffffff" data-color="3"></path>
        <path d="M82.99 124.62c-.13 0-.25-.02-.37-.07l-7.03-2.81a1.006 1.006 0 0 1-.34-1.64l8.78-8.78c.19-.19.46-.28.72-.29l19.73.3c1.07.02 2.09.49 2.8 1.3s1.04 1.88.91 2.95a8.15 8.15 0 0 1-7.29 7.17l-17.83 1.86c-.01.01-.05.01-.08.01zm-5.25-4.17 5.39 2.16 17.58-1.84a6.16 6.16 0 0 0 5.51-5.42 1.79 1.79 0 0 0-.43-1.4c-.34-.39-.81-.61-1.32-.61l-19.31-.3-7.42 7.41z" fill="#080717" data-color="1"></path>
        <path d="M102.64 135.56c.97-.97.97-2.55 0-3.53l-18.95-18.95-6.9 6.9 15.57 15.57a7.276 7.276 0 0 0 10.28.01z" fill="#ffffff" data-color="3"></path>
        <path d="M97.5 138.68c-2.12 0-4.24-.81-5.85-2.42l-15.57-15.57a.996.996 0 0 1 0-1.41l6.9-6.9c.38-.38 1.04-.38 1.41 0l18.95 18.95a3.5 3.5 0 0 1 0 4.94 8.279 8.279 0 0 1-5.84 2.41zm-19.3-18.69 14.86 14.86c2.44 2.44 6.42 2.44 8.87 0 .58-.58.58-1.53 0-2.11L83.69 114.5l-5.49 5.49zm24.44 15.57z" fill="#080717" data-color="1"></path>
        <path d="M95.9 142.29c.97-.97.97-2.55 0-3.53l-18.95-18.95-6.9 6.9 15.57 15.57c2.84 2.85 7.45 2.85 10.28.01z" fill="#ffffff" data-color="3"></path>
        <path d="M90.76 145.41c-2.12 0-4.24-.81-5.85-2.42l-15.57-15.57c-.19-.19-.29-.44-.29-.71s.11-.52.29-.71l6.9-6.9a.996.996 0 0 1 1.41 0l18.95 18.95a3.5 3.5 0 0 1 0 4.94c-1.6 1.62-3.72 2.42-5.84 2.42zm-19.29-18.69 14.86 14.86c2.44 2.44 6.42 2.44 8.87 0 .58-.58.58-1.53 0-2.11l-18.24-18.24-5.49 5.49z" fill="#080717" data-color="1"></path>
        <path d="m84.77 144.97.24-.24c.94-.94.94-2.46 0-3.4l-14.78-14.78-3.26 3.26a9.819 9.819 0 0 0-2.72 8.71l1.89 10.42 6.51-6.17 2.21 2.21c2.73 2.73 7.17 2.73 9.91-.01z" fill="#ffffff" data-color="3"></path>
        <path d="M66.13 149.93c-.1 0-.21-.02-.31-.05a.979.979 0 0 1-.67-.77l-1.89-10.42c-.63-3.49.49-7.08 3-9.59l3.26-3.26a.996.996 0 0 1 1.41 0l14.78 14.78a3.41 3.41 0 0 1 0 4.82l-.24.24c-3.12 3.12-8.21 3.12-11.33 0l-1.53-1.53-5.8 5.5a.97.97 0 0 1-.68.28zm4.1-21.97-2.56 2.56a8.849 8.849 0 0 0-2.45 7.82l1.56 8.59 5.16-4.9a.99.99 0 0 1 1.39.02l2.21 2.21c2.35 2.34 6.16 2.34 8.5 0l.24-.24c.55-.55.55-1.44 0-1.99l-14.05-14.07zm14.54 17.01z" fill="#080717" data-color="1"></path>
        <path d="m157.92 113.99 1.34-19.72c.11-1.64-1.1-3-2.62-2.95-2.38.08-4.5 1.76-5.3 4.19l-2.17 6.67 8.75 11.81z" fill="#ffffff" data-color="3"></path>
        <path d="M157.92 114.99c-.31 0-.61-.15-.8-.4l-8.75-11.8c-.19-.26-.25-.6-.15-.91l2.17-6.67c.92-2.83 3.42-4.79 6.22-4.88.98-.06 1.91.35 2.6 1.07.74.77 1.12 1.84 1.05 2.95l-1.34 19.72c-.03.42-.31.77-.72.89-.09.02-.19.03-.28.03zm-7.64-12.98 6.83 9.21 1.16-17.02c.04-.54-.14-1.06-.49-1.42-.3-.31-.68-.45-1.1-.46-1.96.06-3.72 1.47-4.38 3.5l-2.02 6.19z" fill="#080717" data-color="1"></path>
        <path d="M154.12 103.83 139.24 86.6c-.82-.95-2.26-.86-3.03.19l-.75 1.03c-1.42 1.96-1.62 4.6-.52 6.71l2.97 5.69-.14.78-5.66-5c-1.23-1.09-3.1-.88-4.13.49-1.58 2.09-1.52 5.01.02 6.94-1.19-.79-2.79-.52-3.73.69-1.62 2.09-1.57 5.05-.02 6.99-1.19-.79-2.79-.52-3.73.69-1.81 2.34-1.56 5.75.57 7.64l11.47 10.16-.49 2.69c-.58 3.19.17 6.46 2.06 8.92l27.1 35.43 7.63-.41c10.58-.57 16.37-14.01 9.63-22.58l-.15-.18-21.39-26.89.7-1.91c2.63-7.22 1.26-15.3-3.53-20.84z" fill="#ffffff" data-color="3"></path>
        <path d="M161.22 177.64c-.31 0-.6-.14-.79-.39l-27.1-35.43c-2.06-2.7-2.88-6.23-2.24-9.71l.39-2.13-11.05-9.79c-2.51-2.22-2.82-6.26-.69-9a3.9 3.9 0 0 1 2.65-1.51c-.65-2.05-.28-4.4 1.1-6.18a3.9 3.9 0 0 1 2.65-1.51 6.8 6.8 0 0 1 1.05-6.11c.68-.9 1.65-1.46 2.73-1.56 1.05-.1 2.06.23 2.86.93l2.62 2.32-1.34-2.57c-1.28-2.45-1.04-5.5.6-7.76l.75-1.03a3 3 0 0 1 2.3-1.26c.87-.06 1.71.33 2.3 1l14.88 17.22c5.07 5.86 6.48 14.23 3.71 21.83l-.51 1.39 21.19 26.64c3.43 4.36 4.07 10.34 1.68 15.62-2.31 5.09-6.81 8.3-12.04 8.58l-7.63.41h-.07zm-38.45-65.98c-.54 0-1.08.26-1.46.75-1.49 1.92-1.29 4.74.44 6.28l11.47 10.16c.26.23.38.58.32.93l-.49 2.68c-.53 2.92.15 5.89 1.87 8.13l26.78 35.01 7.11-.38c4.47-.24 8.33-3.01 10.32-7.41 2.08-4.59 1.54-9.79-1.43-13.56l-.14-.18-21.39-26.89a.983.983 0 0 1-.16-.96l.7-1.91c2.49-6.82 1.18-14.61-3.34-19.84l-14.88-17.22a.838.838 0 0 0-.7-.31c-.29.01-.57.17-.76.44l-.75 1.03c-1.2 1.66-1.38 3.88-.45 5.66l2.97 5.69c.1.2.14.42.1.64l-.14.78a.999.999 0 0 1-1.65.57l-5.66-5.01c-.37-.33-.85-.49-1.33-.44-.52.05-1 .33-1.34.78-1.28 1.7-1.28 4.1 0 5.71a1 1 0 0 1-.04 1.3c-.33.36-.88.43-1.29.16-.77-.51-1.78-.31-2.39.47-1.32 1.7-1.33 4.12-.03 5.76a1 1 0 0 1-.04 1.3c-.33.36-.88.43-1.29.16-.29-.19-.61-.28-.93-.28z" fill="#080717" data-color="1"></path>
        <path d="M142.39 117.29c-.24 0-.47-.08-.66-.25l-13.8-12.23c-.41-.37-.45-1-.09-1.41.37-.41 1-.45 1.41-.08l13.8 12.23c.41.37.45 1 .09 1.41-.2.22-.47.33-.75.33z" fill="#080717" data-color="1"></path>
        <path d="M146.74 109.96c-.24 0-.47-.08-.66-.25l-14.67-13c-.41-.37-.45-1-.09-1.41.37-.41 1-.45 1.41-.08l14.67 13c.41.37.45 1 .09 1.41-.2.21-.48.33-.75.33z" fill="#080717" data-color="1"></path>
        <path d="M137.63 124.02c-.24 0-.47-.08-.66-.25l-14.67-12.99c-.41-.37-.45-1-.09-1.41.37-.41 1-.45 1.41-.09l14.67 12.99c.41.37.45 1 .09 1.41-.2.23-.47.34-.75.34z" fill="#080717" data-color="1"></path>
        <path d="M191.18 211.12c-.47 0-1-.04-1.58-.13-5.85-.95-16.48-7.22-33.87-31.73a.994.994 0 0 1 .24-1.39.996.996 0 0 1 1.39.24c25.87 36.44 35.61 30.7 35.7 30.64.45-.29 1.07-.18 1.38.26.31.45.22 1.05-.22 1.37-.12.07-1.09.74-3.04.74z" fill="#ffffff" data-color="3"></path>
    </g>
</svg>