<svg preserveAspectRatio="xMidYMid meet" data-bbox="0 -0.002 301.58 219.972" viewBox="0 -0.002 301.58 219.972" xmlns="http://www.w3.org/2000/svg" data-type="color" role="presentation" aria-hidden="true" aria-label="">
    <g>
        <path d="M241.38 51.43c-1.62-19.02-21.63-32.73-44.29-30-20.36 2.45-35.89 17.82-35.47 35.15.18 7.68 4.6 16.08 13.91 21.4 10.54 3.45 17.89 3.5 31.44 2.25 20.23-1.85 34.46-28.29 34.41-28.8z" fill="#080717" data-color="1"></path>
        <path d="m26.35 43.05-5.55-4.34-9.92 3.77c-3.01 2.13-3.9 3.2-5.79 6.06l-1.45 1.31s-5.11-26.1 7.37-35.33S45.11-4.9 54.24 4.67 67.8 35.24 67.8 35.24s-6.97 6.81-10.7.57c-5.11-8.56-7.48-12.92-7.48-12.92l8.92 22.86s-4.41 3.22-9.42 3.66c-5.01.45-12.33 3.32-22.77-6.36z" fill="#ffffff" data-color="2"></path>
        <path d="M292.41 107.27c1.92-14.63-9.37-27.77-24.12-27.81h-.3c-20.62.41-21.06-12.8-21.06-13.51.12-22.44-18.42-40.64-41.06-39.88-20.35.68-46.66 18.8-38.25 37.34 13.23 29.19-.05 52.36 15.9 53.8 13.1 1.18 74.66 3.2 100.63-1.34 4.34-.75 7.69-4.23 8.26-8.6z" fill="#080717" data-color="1"></path>
        <path d="m295.75 164.78-32.68-56.22c-4.58-7.87-14.19-14.84-23.02-12.63L194.6 109.9c-28.06-6.15-121.49-17.29-121.49-17.29L34.09 36.74l-29.7 7.98 23.94 50.8c15.07 25.46 19.05 32.33 37.37 36.56l105.84 33.69 22.61 51.43 46.56 1.11h24.23c19.68 0 35.62-15.95 35.62-35.62.01-6.29-1.65-12.47-4.81-17.91z" fill="#ffffff" data-color="2"></path>
        <path d="M264.95 219.31h-24.23l-46.58-1.11a.985.985 0 0 1-.89-.6l-22.43-51.02L65.4 133.03c-18.55-4.28-22.6-11.12-37.67-36.57l-.26-.43L3.48 45.15a.975.975 0 0 1 0-.85c.12-.27.36-.47.65-.54l29.71-7.98c.41-.11.84.05 1.08.39l38.76 55.5c7.02.84 93.79 11.31 120.88 17.2l45.2-13.89c9.41-2.35 19.47 4.98 24.18 13.08l32.68 56.22a36.611 36.611 0 0 1 4.96 18.4c-.01 20.2-16.44 36.63-36.63 36.63zm-70.13-3.09 45.92 1.09h24.21c19.09 0 34.62-15.53 34.62-34.62 0-6.1-1.62-12.12-4.69-17.4l-32.68-56.22c-4.34-7.47-13.5-14.26-21.92-12.16l-45.4 13.95c-.16.05-.34.06-.51.02C166.69 104.8 73.93 93.71 72.99 93.6a.996.996 0 0 1-.7-.42L33.68 37.89 5.8 45.38 29.24 95.1l.21.35C44.17 120.31 48.13 127 65.92 131.1l105.92 33.71c.27.09.5.29.61.55l22.37 50.86z" fill="#080717" data-color="1"></path>
        <path d="M80.08 201.42c4.98.15 9.45-1.99 12.45-5.45.63-.73 1.55-1.14 2.51-1.14h.07a3.51 3.51 0 0 1 3.52 3.51v20.48h51.88c8.07 0 14.61-6.54 14.61-14.61v-51.88H98.63v20.48c0 1.94-1.57 3.51-3.51 3.51-1.02 0-1.98-.46-2.66-1.23-2.9-3.29-7.14-5.38-11.88-5.38-9.01 0-16.27 7.52-15.83 16.63.38 8.17 7.16 14.83 15.33 15.08z" fill="#ffb000" data-color="3"></path>
        <path d="M147.72 170.67c.15-4.95-1.97-9.4-5.4-12.41-.76-.67-1.2-1.62-1.2-2.63 0-1.94 1.57-3.51 3.51-3.51h20.48v-51.88c0-8.07-6.54-14.61-14.61-14.61H98.63v66.49h20.48c1.94 0 3.51 1.57 3.51 3.51 0 1.02-.46 1.98-1.23 2.66-3.29 2.9-5.38 7.14-5.38 11.88 0 9.01 7.52 16.27 16.63 15.83 8.17-.39 14.83-7.17 15.08-15.33z" fill="#080717" data-color="1"></path>
        <path d="M85.05 49.86c-4.98-.15-9.45 1.99-12.45 5.45-.63.73-1.55 1.14-2.51 1.14h-.07a3.51 3.51 0 0 1-3.52-3.51V32.46H14.61C6.54 32.46 0 39 0 47.07v51.88h21.67c1.35-.49 2.33-1.77 2.33-3.29 0-1.01-.44-1.97-1.2-2.63-3.43-3-5.55-7.45-5.4-12.41.25-8.17 6.91-14.95 15.07-15.33 9.11-.43 16.63 6.82 16.63 15.83 0 4.68-2.04 8.88-5.26 11.78-.67.6-1.19 1.38-1.31 2.27a3.51 3.51 0 0 0 2.29 3.79h21.67V78.64c0-1.53.91-2.99 2.36-3.49 1.43-.5 2.89-.03 3.82 1.03 2.9 3.29 7.14 5.38 11.88 5.38 9.01 0 16.27-7.52 15.83-16.62-.39-8.16-7.17-14.82-15.33-15.08z" fill="#ffb000" data-color="3"></path>
        <path d="M49.54 133.78c-.15 4.98 1.99 9.45 5.45 12.45.73.63 1.14 1.55 1.14 2.51v.07a3.51 3.51 0 0 1-3.51 3.52H32.14v51.88c0 8.07 6.54 14.61 14.61 14.61h51.88v-66.49H78.15c-1.94 0-3.51-1.57-3.51-3.51 0-1.02.46-1.98 1.23-2.66 3.29-2.9 5.38-7.14 5.38-11.88 0-9.01-7.52-16.27-16.63-15.83-8.17.38-14.82 7.16-15.08 15.33z" fill="#080717" data-color="1"></path>
        <path d="m26.35 43.05-11.98-15.4s-15.84-3.9-3.36-13.13S45.11-4.9 54.24 4.67 67.8 35.24 67.8 35.24s-6.97 6.81-10.7.57c-5.11-8.56-7.48-12.92-7.48-12.92l8.92 22.86s-4.41 3.22-9.42 3.66c-5.01.45-12.33 3.32-22.77-6.36z" fill="#ffffff" data-color="2"></path>
        <path d="M61.56 39.39c-.13 0-.25 0-.38-.01-1.71-.11-3.17-.97-4.34-2.56-1.62-2.19-3.08-5.47-4.5-8.65-2.01-4.5-4.28-9.6-6.6-10.31a.99.99 0 0 1-.66-1.25.99.99 0 0 1 1.25-.66c3.19.97 5.45 6.04 7.85 11.41 1.38 3.08 2.8 6.27 4.28 8.28.82 1.1 1.75 1.68 2.86 1.75 2.22.15 4.54-1.71 5.42-2.5-.61-3.29-4.3-21.39-13.16-29.47-10.64-9.71-32.91 3.72-42 9.94-.45.31-1.08.2-1.39-.26a.997.997 0 0 1 .26-1.39C37.86-5.09 50.07-.49 54.91 3.93c10.24 9.34 13.73 30.26 13.88 31.15.05.31-.05.63-.27.86-.14.14-3.38 3.45-6.96 3.45z" fill="#080717" data-color="1"></path>
        <path d="M52.92 49.84c-1.14 0-2.33-.34-3.49-1.19-.45-.33-.54-.95-.22-1.4.33-.45.95-.54 1.4-.22 2.97 2.16 6.05-.61 7.13-1.77l-16.92-36c-.23-.5-.02-1.1.48-1.33.5-.24 1.1-.02 1.33.48L59.82 45c.16.34.11.75-.12 1.04-1.25 1.6-3.87 3.8-6.78 3.8z" fill="#080717" data-color="1"></path>
        <path d="M44.89 52.05c-1.91 0-3.87-.49-5.23-2.08-3.05-3.57-18.25-28.13-18.9-29.17-.29-.47-.14-1.09.32-1.38.47-.29 1.09-.15 1.38.32.17.26 15.77 25.47 18.73 28.93 1.88 2.2 5.95 1.25 7.87.64l-18.8-35.42c-.26-.49-.07-1.09.41-1.35a.993.993 0 0 1 1.35.41l19.35 36.44a1 1 0 0 1-.49 1.39c-.2.08-3.02 1.27-5.99 1.27z" fill="#080717" data-color="1"></path>
        <path d="M37.4 50.51c-11.54 0-23.36-21.61-23.9-22.61-.26-.49-.08-1.09.4-1.36.48-.26 1.09-.08 1.36.4.03.06 3.5 6.44 8.33 12.23 4.3 5.15 10.59 10.89 16.1 8.94.52-.18 1.09.09 1.28.61.18.52-.09 1.09-.61 1.28-.97.35-1.97.51-2.96.51z" fill="#080717" data-color="1"></path>
        <path d="M296.97 111.48a.999.999 0 0 1-.65-1.76c2.45-2.1 1.93-8.96-1.22-15.96-3.66-8.15-10.86-16.4-20.13-15.14-8.85 1.21-15.73-.05-20.45-3.73-5.02-3.92-5.65-9.16-5.67-9.38-2.61-23.64-23.95-40.75-47.61-38.14a1 1 0 0 1-1.1-.88.992.992 0 0 1 .88-1.1c24.73-2.72 47.09 15.17 49.82 39.91 0 .05.55 4.62 4.92 8.02 4.28 3.34 10.65 4.46 18.95 3.33 10.34-1.4 18.27 7.5 22.22 16.3 2.95 6.57 4.42 15.09.69 18.29-.19.16-.42.24-.65.24z" fill="#080717" data-color="1"></path>
        <path d="m197.6 35.81 18.6.1c6.57.03 11.91 5.44 11.87 12l-.05 8.92c-.01 2.76-.39 5.43-1.08 7.98 6.15.06 11.11 5.08 11.07 11.23-.03 6.17-5.06 11.15-11.24 11.12-3.63-.02-6.83-1.77-8.86-4.46l8.47 17.79 6.24-1.82c2.55.55 2.63 2.19 2.98 5.68 0 0 1.01 27.75-22.2 32.32-22 4.33-20.6-22.11-15.94-27.76l6.01-1.75c-.76-1.01-1.44-2.12-2-3.31l-7.48-15.72-2.14-.01c-10.58-.06-19.19-8.76-19.13-19.34l.04-8.39c.07-13.59 11.25-24.65 24.84-24.58z" fill="#ffffff" data-color="2"></path>
        <path d="M208.83 138.15c-6.84 0-10.5-3.46-12.42-6.68-4.51-7.56-2.94-19.28.29-23.18.13-.16.3-.27.49-.32l4.67-1.36c-.48-.74-.91-1.52-1.29-2.31l-7.21-15.16-1.52-.01c-11.16-.06-20.18-9.19-20.13-20.34l.04-8.39c.04-6.84 2.75-13.28 7.65-18.12 4.86-4.81 11.27-7.45 18.06-7.45h.14l18.6.1c3.44.02 6.68 1.38 9.12 3.85 2.44 2.46 3.77 5.71 3.75 9.16l-.05 8.92c-.01 2.37-.29 4.74-.82 7.05 6.1.68 10.85 5.9 10.81 12.17-.04 6.71-5.55 12.15-12.24 12.11-2.1-.01-4.12-.55-5.89-1.55l6.03 12.68 5.42-1.58c.16-.05.33-.05.49-.02 3.18.69 3.4 2.9 3.73 6.24l.03.31c.01.35.76 28.72-23 33.4-1.72.33-3.3.48-4.75.48zm-10.77-28.36c-2.4 3.32-3.98 13.87.07 20.66 2.91 4.88 7.98 6.65 15.09 5.25 22.08-4.35 21.43-30.21 21.39-31.3l-.03-.25c-.33-3.36-.51-4.06-1.92-4.43l-5.99 1.74a.997.997 0 0 1-1.18-.53l-8.47-17.79c-.22-.46-.05-1.02.38-1.29a.999.999 0 0 1 1.32.25c1.94 2.57 4.88 4.05 8.07 4.07h.05c5.59 0 10.15-4.53 10.18-10.12.03-5.59-4.49-10.18-10.08-10.23-.31 0-.6-.15-.79-.4a.99.99 0 0 1-.17-.86c.68-2.52 1.03-5.12 1.04-7.72l.05-8.92c.02-2.91-1.11-5.66-3.17-7.74-2.06-2.08-4.8-3.24-7.71-3.25l-18.6-.1c0 .02-.09 0-.13 0-6.26 0-12.17 2.44-16.65 6.88-4.52 4.47-7.02 10.4-7.05 16.71l-.04 8.39c-.05 10.05 8.08 18.28 18.14 18.33l2.14.01c.38 0 .73.22.9.57l7.48 15.72c.52 1.1 1.16 2.16 1.9 3.14.2.26.25.6.15.92-.1.31-.35.55-.67.64l-5.7 1.65z" fill="#080717" data-color="1"></path>
        <path d="M198.4 89.02h-.16l-15.08-.08c-.5 0-.91-.41-.9-.91 0-.5.41-.9.91-.9l15.08.08c2.96-.02 5.88-.43 8.68-1.33.48-.15.99.11 1.14.59.15.48-.11.99-.59 1.14a29.91 29.91 0 0 1-9.08 1.41z" fill="#080717" data-color="1"></path>
        <path d="M207.23 23.23c21.19 2.81 37.6 20.62 38.26 42.37-4.8 3.15-10.62 4.99-16.9 4.95-16.3-.09-29.45-12.73-29.37-28.24.04-7.39 3.08-14.09 8.01-19.08z" fill="#080717" data-color="1"></path>
        <path d="M222.5 76.57c-.07 0-.13-.01-.2-.02a.904.904 0 0 1-.69-1.08c.04-.2 1.12-4.88 5.29-6.38a.91.91 0 0 1 1.16.55.91.91 0 0 1-.55 1.16c-3.21 1.16-4.12 5.03-4.13 5.06-.09.42-.47.71-.88.71z" fill="#080717" data-color="1"></path>
        <path d="M197.33 61.74c-.33 1.46-1.35 2.48-2.27 2.27-.93-.21-1.42-1.56-1.09-3.02.33-1.46 1.35-2.48 2.27-2.27.93.2 1.41 1.56 1.09 3.02z" fill="#080717" data-color="1"></path>
        <path d="M181 60.63c-.33 1.46-1.35 2.48-2.27 2.27-.93-.21-1.42-1.56-1.09-3.02.33-1.46 1.35-2.48 2.27-2.27s1.42 1.56 1.09 3.02z" fill="#080717" data-color="1"></path>
        <path d="M201.63 56.77c-.25 0-.5-.1-.68-.3-2.35-2.63-6.41-2.01-6.45-2-.5.07-.96-.25-1.04-.75-.08-.5.25-.96.75-1.05.21-.03 5.08-.81 8.11 2.59.33.38.3.95-.07 1.28a.92.92 0 0 1-.62.23z" fill="#080717" data-color="1"></path>
        <path d="M188.13 79.73c-3.73 0-7.33-4.16-7.49-4.35a.921.921 0 0 1-.17-.89c.1-.3.36-.53.68-.6l12.02-2.48c.31-.06.62.03.83.25.22.22.31.54.24.84-.95 4.12-2.62 6.5-4.98 7.08-.38.11-.76.15-1.13.15zm-4.98-4.39c1.47 1.34 3.8 2.95 5.67 2.49 1.64-.41 2.66-2.36 3.27-4.33l-8.94 1.84z" fill="#080717" data-color="1"></path>
        <path d="M181.71 66.94c-.35 0-.69-.21-.83-.55-.2-.46.01-1 .47-1.2 2.74-1.19 3.86-4.72 2.5-7.87-.67-1.55-1.83-2.77-3.25-3.44-1.39-.65-2.88-.7-4.19-.13-.46.2-1-.01-1.2-.47-.2-.46.01-1 .47-1.2 1.79-.78 3.81-.72 5.68.16 1.83.86 3.31 2.41 4.15 4.36 1.76 4.08.22 8.68-3.44 10.26-.12.06-.24.08-.36.08z" fill="#080717" data-color="1"></path>
        <path d="m200.77 184.57-27.53-25.41-18.81-3.05c-2.35-.05-3.81 2.55-2.53 4.52 1.82 2.82 4.54 4.95 7.71 6.05l7.28 2.53 6.35 6.35-16.41-2.12-14.39 5.75a1.13 1.13 0 0 0-.43 1.8c2.01 2.26 4.9 3.56 7.93 3.56l-4.61 2.63c-1.02.58-1.18 2-.32 2.8.37.49.8.91 1.27 1.29 2.24 1.74 5.29 2 7.91.91l4.59-2.04 6.98 2.55-12.73 7.01c-1.26.73-1.12 2.58.22 3.12 3.01 1.21 6.31 1.53 9.5.93l3.59-.67 24.35 15.35 53.99.53-2.65-37.58-41.26 3.19z" fill="#ffffff" data-color="2"></path>
        <path d="m244.7 219.97-54-.53c-.19 0-.37-.06-.52-.15l-24.02-15.14-3.2.6c-3.38.64-6.86.29-10.05-.98a2.703 2.703 0 0 1-1.71-2.35 2.72 2.72 0 0 1 1.36-2.57l10.82-5.96-4.54-1.66-4.22 1.87c-3.07 1.27-6.48.87-8.93-1.03a7.84 7.84 0 0 1-1.41-1.41c-.6-.6-.89-1.41-.79-2.26.1-.88.6-1.63 1.37-2.07l2.05-1.17a11.66 11.66 0 0 1-5.63-3.49 2.14 2.14 0 0 1-.48-1.91c.16-.67.64-1.23 1.28-1.49l14.39-5.75c.16-.06.33-.08.5-.06l13.5 1.74-4.12-4.12-7.06-2.46a16.197 16.197 0 0 1-8.22-6.45 3.929 3.929 0 0 1-.13-4.05 3.95 3.95 0 0 1 3.52-2.01c.05 0 .09.01.14.01l18.81 3.05c.19.03.37.12.52.25l27.21 25.11 40.85-3.14c.27-.02.53.07.73.24.2.17.33.42.34.69l2.65 37.58c.02.28-.08.55-.27.76-.2.2-.46.31-.74.31zm-53.7-2.52 52.63.52-2.5-35.5-40.29 3.1c-.28.02-.55-.07-.76-.26l-27.3-25.2-18.44-2.99c-.7.01-1.32.37-1.67.99-.36.64-.33 1.38.06 1.99 1.69 2.62 4.25 4.62 7.2 5.65l7.28 2.53c.14.05.27.13.38.24l6.35 6.35c.3.3.38.76.19 1.15-.19.38-.59.6-1.03.55l-16.15-2.08-14.14 5.66c-.02.01-.06.03-.08.09-.01.04 0 .08.03.12a9.607 9.607 0 0 0 7.18 3.22c.45 0 .85.3.97.74s-.08.9-.47 1.12l-4.61 2.63c-.21.12-.34.32-.37.56-.03.24.06.47.23.63.04.04.09.09.12.13.3.4.66.77 1.09 1.09 1.89 1.47 4.53 1.77 6.91.77l4.57-2.03c.24-.11.51-.11.75-.03l6.98 2.55a1 1 0 0 1 .14 1.81l-12.73 7.01c-.34.2-.36.54-.35.68.01.14.08.48.46.63 2.84 1.14 5.93 1.44 8.94.88l3.59-.67c.25-.05.5 0 .72.14L191 217.45z" fill="#080717" data-color="1"></path>
        <path d="M149.95 185.57c-.36 0-.71-.2-.89-.54-.25-.49-.06-1.09.43-1.35l7.15-3.71c.2-.1.43-.14.66-.09l18.53 3.71c.54.11.89.63.78 1.18a.99.99 0 0 1-1.18.78l-18.18-3.64-6.83 3.54c-.16.08-.31.12-.47.12z" fill="#080717" data-color="1"></path>
        <path d="M174.3 196.42c-.11 0-.22-.02-.32-.05l-15.39-5.26c-.52-.18-.8-.75-.62-1.27.18-.52.75-.8 1.27-.62l15.39 5.26c.52.18.8.75.62 1.27-.15.41-.53.67-.95.67z" fill="#080717" data-color="1"></path>
        <path d="m262.66 179.73-20.6 1.66 20.6-1.66z" fill="#ffffff" data-color="2"></path>
        <path fill="#080717" d="m262.573 178.746.16 1.994-20.604 1.652-.16-1.994 20.604-1.652z" data-color="1"></path>
        <path d="m240.05 153.13 7.98 27.27-7.98-27.27z" fill="#ffffff" data-color="2"></path>
        <path fill="#080717" d="m241.01 152.845 7.982 27.266-1.92.561-7.98-27.266 1.919-.561z" data-color="1"></path>
        <path d="M2.44 39.74c-.53 0-.97-.42-1-.96-.37-8.38.89-19.53 9-25.09C37.86-5.09 50.07-.49 54.91 3.93c10.24 9.34 13.73 30.26 13.88 31.15.05.31-.05.63-.27.86-.15.15-3.62 3.69-7.34 3.44-1.71-.11-3.17-.97-4.34-2.56-1.62-2.19-3.08-5.47-4.5-8.65-2.01-4.5-4.28-9.6-6.6-10.31a.99.99 0 0 1-.66-1.25.99.99 0 0 1 1.25-.66c3.19.97 5.45 6.04 7.85 11.41 1.38 3.08 2.8 6.27 4.28 8.28.82 1.1 1.75 1.68 2.86 1.75 2.22.15 4.54-1.71 5.42-2.5-.61-3.29-4.3-21.39-13.16-29.47-10.64-9.71-32.91 3.72-42 9.94-7.37 5.03-8.49 15.47-8.14 23.34.02.55-.4 1.02-.95 1.04h-.05z" fill="#080717" data-color="1"></path>
    </g>
</svg>