<svg preserveAspectRatio="xMidYMid meet" data-bbox="0 -0.006 307.73 254.928" viewBox="0 -0.006 307.73 254.928" xmlns="http://www.w3.org/2000/svg" data-type="color" role="presentation" aria-hidden="true" aria-label="">
    <g>
        <path d="M220.43 102.61c2.27 2.58 3.15 4.87 2.96 6.33 0 0 54.16 40.46 73.48 33.34 15.64-5.76 5.38-19.9 1.66-21.92-7.01-3.79-7.31-4.33-1.73-11.28 5.58-6.95 11.6-10.26.17-14.78-8.08-3.2-7.78-5.81-5.47-15.49 2.31-9.68-12.3-15.19-18.42-14.24-6.11.95 1.07-3.74-3.57-6.41-4.63-2.67-6.71-.11-8.13 1.73-1.42 1.84-12.05-.29-16.26 6.6-4.21 6.89-12.29 3.69-12.93 16.99-.64 13.3-3.38 7.13-7.06 7.43-3.7.3-9.45 6.3-4.7 11.7z" fill="#080717" data-color="1"></path>
        <path d="M182.94 227.8H14.84c-5.35 0-9.68-4.34-9.68-9.68V112.55c0-5.35 4.34-9.68 9.68-9.68h168.1c5.35 0 9.68 4.34 9.68 9.68v105.56c0 5.35-4.34 9.69-9.68 9.69z" fill="#ffffff" data-color="2"></path>
        <path d="M182.94 228.8H14.84c-5.89 0-10.68-4.79-10.68-10.68V112.55c0-5.89 4.79-10.68 10.68-10.68h168.1c5.89 0 10.68 4.79 10.68 10.68v105.56c0 5.89-4.79 10.69-10.68 10.69zM14.84 103.87c-4.79 0-8.68 3.89-8.68 8.68v105.56c0 4.79 3.9 8.68 8.68 8.68h168.1c4.79 0 8.68-3.89 8.68-8.68V112.55c0-4.79-3.9-8.68-8.68-8.68H14.84z" fill="#080717" data-color="1"></path>
        <path d="M17.53 117.87c-2.48 0-4.5-2.02-4.5-4.5s2.02-4.5 4.5-4.5 4.5 2.02 4.5 4.5a4.5 4.5 0 0 1-4.5 4.5zm0-7a2.5 2.5 0 0 0 0 5 2.5 2.5 0 0 0 0-5z" fill="#080717" data-color="1"></path>
        <path d="M29.31 117.87c-2.48 0-4.5-2.02-4.5-4.5s2.02-4.5 4.5-4.5 4.5 2.02 4.5 4.5a4.5 4.5 0 0 1-4.5 4.5zm0-7a2.5 2.5 0 0 0 0 5 2.5 2.5 0 0 0 0-5z" fill="#080717" data-color="1"></path>
        <path d="M41.09 117.87c-2.48 0-4.5-2.02-4.5-4.5s2.02-4.5 4.5-4.5 4.5 2.02 4.5 4.5a4.5 4.5 0 0 1-4.5 4.5zm0-7a2.5 2.5 0 0 0 0 5 2.5 2.5 0 0 0 0-5z" fill="#080717" data-color="1"></path>
        <path d="m233.62 113.39 18.35 15.64 26.98-8.64c16.41-4.88 24.24 11.52 25.25 19.74l2.53 66.09c-.08 19.07-21.03 30.67-37.24 20.63l-98.28-60.9 41.76-50.74c5.16-6.27 14.46-7.09 20.65-1.82z" fill="#ffffff" data-color="2"></path>
        <path d="M282.32 231.56c-4.61 0-9.21-1.29-13.36-3.86l-98.28-60.9a.985.985 0 0 1-.46-.69c-.05-.29.03-.58.21-.8l41.76-50.74c2.67-3.24 6.44-5.23 10.63-5.6 4.18-.37 8.25.93 11.44 3.65l17.93 15.28 26.46-8.47c5.78-1.72 11.01-1.08 15.54 1.89 6.51 4.26 10.26 12.67 11 18.68l2.54 66.17c-.04 9.36-4.93 17.62-13.09 22.14-3.89 2.17-8.11 3.25-12.32 3.25zm-109.61-65.85L270.02 226c7.3 4.52 16.14 4.74 23.65.58 7.51-4.16 12.02-11.77 12.06-20.36l-2.53-66.05c-.56-4.56-3.73-12.99-10.11-17.17-4.02-2.63-8.69-3.19-13.86-1.65l-26.97 8.63c-.33.1-.69.03-.95-.19l-18.35-15.64c-2.78-2.37-6.32-3.5-9.97-3.18a13.41 13.41 0 0 0-9.26 4.88l-41.02 49.86z" fill="#080717" data-color="1"></path>
        <path d="M235.87 91.21c-.38.98-1.2 1.58-1.84 1.33-.64-.25-.85-1.24-.47-2.22.38-.98 1.2-1.58 1.84-1.33.64.24.85 1.24.47 2.22z" fill="#ffffff" data-color="2"></path>
        <path d="M234.33 93.6c-.22 0-.44-.04-.66-.12-1.17-.45-1.63-2-1.04-3.52.25-.65.67-1.21 1.17-1.58.62-.45 1.34-.57 1.96-.33.62.24 1.07.81 1.23 1.56.13.61.06 1.3-.19 1.96-.47 1.24-1.48 2.03-2.47 2.03zm.7-3.63c-.14.08-.37.3-.53.71-.16.41-.13.73-.09.88.14-.08.37-.3.53-.71.16-.42.13-.73.09-.88zm.84 1.24z" fill="#080717" data-color="1"></path>
        <path d="m79.27 209-4-.05.03-2 4 .05-.03 2zm-8-.11-4-.05.03-2 4 .05-.03 2zm-7.99-.11-4-.05.03-2 4 .05-.03 2zm-8-.11-4-.05.03-2 4 .05-.03 2zm26.89 0-.48-1.94a9.42 9.42 0 0 0 3.26-1.51l1.17 1.62c-1.2.86-2.53 1.48-3.95 1.83zm-34.89-.11-4-.05.03-2 4 .05-.03 2zm-8-.11-4-.05.03-2 4 .05-.03 2zm-8.22-.49c-1.42-.39-2.73-1.05-3.9-1.96l1.22-1.58c.96.74 2.04 1.29 3.21 1.61l-.53 1.93zm58.04-4.3-1.69-1.07a9.468 9.468 0 0 0 1.3-3.35l1.97.35c-.27 1.45-.8 2.82-1.58 4.07zm-64.81-.92c-.75-1.27-1.23-2.65-1.45-4.11l1.98-.29c.17 1.2.58 2.34 1.19 3.39l-1.72 1.01zm66.59-7.3-2-.03.05-4 2 .03-.05 4zm-66.13-.94-2-.03.05-4 2 .03-.05 4zm66.24-7.06-2-.03.05-4 2 .03-.05 4zm-66.13-.94-2-.03.05-4 2 .03-.05 4zm66.23-7.05-2-.03.05-4 2 .03-.05 4zm-66.12-.95-2-.03.05-4 2 .03-.05 4zm66.23-7.05-2-.03.05-4 2 .03-.05 4zm-66.12-.94-2-.03.05-4 2 .03-.05 4zm66.23-7.06-2-.03.05-4 2 .03-.05 4zm-66.12-.94-2-.03.05-4 2 .03-.05 4zm66.23-7.06-2-.03.04-3.13c0-.26-.01-.52-.03-.77l1.99-.16c.03.31.04.62.04.94l-.04 3.15zm-66.12-.94-2-.03.04-2.96c.01-.38.03-.76.07-1.13l1.99.22c-.03.31-.05.62-.06.94l-.04 2.96zm63.16-6.45a9.518 9.518 0 0 0-2.2-2.84l1.32-1.5c1.11.97 2 2.13 2.66 3.45l-1.78.89zm-61.99-.88-1.76-.96c.7-1.29 1.63-2.42 2.77-3.36l1.27 1.54c-.93.78-1.7 1.72-2.28 2.78zm56.69-3.78c-.96-.34-1.96-.51-2.99-.53l-.63-.01.03-2 .63.01c1.24.02 2.46.23 3.62.64l-.66 1.89zm-7.61-.59-4-.05.03-2 4 .05-.03 2zm-8-.11-4-.05.03-2 4 .05-.03 2zm-35.63-.01-.6-1.91c1.11-.35 2.27-.53 3.44-.53l.83.01-.03 2-.8-.01c-.98.01-1.93.15-2.84.44zm27.63-.1-4-.05.03-2 4 .05-.03 2zm-8-.11-4-.05.03-2 4 .05-.03 2zm-8-.11-4-.05.03-2 4 .05-.03 2z" fill="#080717" data-color="1"></path>
        <path d="m226.31 254.92-85.43-1.17c-10.85-.15-19.52-9.06-19.38-19.91l1.17-85.43c.15-10.85 9.06-19.52 19.91-19.38l85.43 1.17c10.85.15 19.52 9.06 19.38 19.91l-1.17 85.43c-.14 10.85-9.06 19.53-19.91 19.38z" fill="#ffb000" data-color="3"></path>
        <path d="M182.97 168.81c-.14 9.93-8.3 17.88-18.23 17.74-9.93-.14-17.88-8.3-17.74-18.23.14-9.93 8.3-17.88 18.23-17.74 9.93.13 17.87 8.3 17.74 18.23z" fill="#ffffff" data-color="2"></path>
        <path d="m121.51 233.84.26-19.39 8.84-8.6c6.54-6.36 16.99-6.22 23.35.32 6.02 6.19 15.92 6.32 22.11.3l34.72-33.78c8.24-8.02 21.43-7.84 29.45.4l6.75 6.93-.76 55.52c-.15 10.85-9.06 19.52-19.91 19.38l-85.43-1.17c-10.85-.15-19.53-9.06-19.38-19.91z" fill="#080717" data-color="1"></path>
        <path d="m148.18 126.84 6.6.05-4.22-4.42a9.78 9.78 0 0 0-6.18-2.99c-2.09-.2-3.17.55-4.72 3.06l-7.53 13.32 3.13.6a6.49 6.49 0 0 0 6.05-2.03l6.87-7.59z" fill="#ffffff" data-color="2"></path>
        <path d="M136.47 137.57c-.46 0-.93-.04-1.39-.13l-3.13-.6c-.32-.06-.58-.27-.72-.56a.978.978 0 0 1 .04-.91l7.53-13.32c1.55-2.52 2.9-3.83 5.68-3.57 2.59.24 5.01 1.41 6.81 3.29l4.22 4.42c.28.29.35.72.19 1.09-.16.37-.52.6-.92.6h-.01l-6.15-.05-6.56 7.26a7.53 7.53 0 0 1-5.59 2.48zm-2.78-2.43 1.76.34c1.88.36 3.84-.3 5.12-1.72l6.87-7.6a1 1 0 0 1 .74-.33h.01l4.24.03-2.59-2.71a8.757 8.757 0 0 0-5.55-2.68c-1.54-.15-2.31.21-3.77 2.59l-6.83 12.08z" fill="#080717" data-color="1"></path>
        <path d="m157.24 128.28 7.84.06-5.02-5.25a11.629 11.629 0 0 0-7.33-3.55 5.384 5.384 0 0 0-5.6 3.64L140 143.33l5.16.3c2.67.16 5.18-1.27 6.42-3.64l5.66-11.71z" fill="#ffffff" data-color="2"></path>
        <path d="M145.56 144.66c-.15 0-.3 0-.46-.01l-5.16-.3a.98.98 0 0 1-.77-.45c-.17-.26-.21-.59-.11-.89l7.13-20.15c.95-2.8 3.68-4.57 6.64-4.3 3.03.28 5.86 1.65 7.96 3.85l5.02 5.25c.28.29.35.72.2 1.09-.16.37-.52.6-.92.6h-.01l-7.21-.05-5.38 11.15a7.831 7.831 0 0 1-6.93 4.21zm-4.17-2.24 3.83.23c2.28.14 4.42-1.09 5.47-3.11l5.65-11.69c.17-.35.52-.57.9-.57h.01l5.47.04-3.38-3.54c-1.77-1.85-4.15-3-6.7-3.24a4.358 4.358 0 0 0-4.56 2.96l-6.69 18.92z" fill="#080717" data-color="1"></path>
        <path d="m167.55 128.36 7.84.06-5.02-5.25a11.629 11.629 0 0 0-7.33-3.55 5.384 5.384 0 0 0-5.6 3.64L151 141.71l5.16.3c2.67.16 5.18-1.27 6.42-3.64l4.97-10.01z" fill="#ffffff" data-color="2"></path>
        <path d="M156.56 143.02c-.15 0-.3 0-.46-.01l-5.16-.3a.996.996 0 0 1-.77-.44.984.984 0 0 1-.11-.88l6.44-18.44a6.343 6.343 0 0 1 6.64-4.3c3.03.28 5.86 1.65 7.96 3.85l5.02 5.25c.28.29.35.72.2 1.09-.16.37-.52.6-.92.6h-.01l-7.21-.06-4.7 9.45a7.835 7.835 0 0 1-6.92 4.19zm-4.18-2.23 3.84.23c2.27.13 4.42-1.09 5.47-3.11l4.97-9.99c.17-.34.52-.55.9-.55h.01l5.47.04-3.38-3.54c-1.77-1.85-4.15-3-6.7-3.24a4.35 4.35 0 0 0-4.56 2.96l-6.02 17.2z" fill="#080717" data-color="1"></path>
        <path d="m177.35 128.44 7.84.06-5.02-5.25a11.629 11.629 0 0 0-7.33-3.55 5.384 5.384 0 0 0-5.6 3.64l-5.4 16 5.16.3c2.67.16 5.18-1.27 6.42-3.64l3.93-7.56z" fill="#ffffff" data-color="2"></path>
        <path d="M167.39 140.66c-.15 0-.3 0-.46-.01l-5.16-.3a.996.996 0 0 1-.77-.44c-.17-.26-.22-.58-.12-.88l5.4-16a6.37 6.37 0 0 1 6.64-4.31c3.03.28 5.86 1.65 7.96 3.85l5.01 5.25c.28.29.35.72.2 1.09-.16.37-.52.6-.92.6h-.01l-7.23-.05-3.65 7.02c-1.32 2.57-4 4.18-6.89 4.18zm-4.19-2.24 3.85.23c2.27.13 4.42-1.09 5.47-3.11l3.94-7.57c.17-.33.51-.54.89-.54h.01l5.47.04-3.38-3.54c-1.77-1.85-4.15-3-6.7-3.24a4.358 4.358 0 0 0-4.56 2.96l-4.99 14.77z" fill="#080717" data-color="1"></path>
        <path d="M282.94 193c-.16 0-.33-.04-.48-.13-.1-.06-10.22-5.7-27.79-17.56a.999.999 0 0 1-.27-1.39c.31-.46.93-.58 1.39-.27 17.49 11.8 27.54 17.41 27.64 17.47a1.003 1.003 0 0 1-.49 1.88z" fill="#080717" data-color="1"></path>
        <path d="m249.58 162.22 3.21-2.24c1.15-.8 1.84-2.12 1.84-3.52v-4.54c0-1.68-.97-3.2-2.5-3.9l-4.23-1.95a4.302 4.302 0 0 0-3.8.1l-6.55 3.45v5.97c0 1.52.8 2.93 2.11 3.7l5.27 3.11c1.45.85 3.27.78 4.65-.18z" fill="#ffffff" data-color="2"></path>
        <path d="M247.12 163.99c-.93 0-1.86-.24-2.69-.74l-5.27-3.11c-1.6-.95-2.6-2.7-2.6-4.56v-5.97c0-.37.21-.71.53-.88l6.55-3.45a5.33 5.33 0 0 1 4.69-.12l4.23 1.95a5.31 5.31 0 0 1 3.08 4.81v4.54c0 1.73-.85 3.36-2.27 4.34l-3.21 2.24c-.92.63-1.98.95-3.04.95zm-8.56-13.77v5.37c0 1.16.62 2.25 1.62 2.84l5.27 3.11c1.11.66 2.51.6 3.56-.13l3.21-2.24c.88-.62 1.41-1.63 1.41-2.7v-4.54c0-1.28-.75-2.46-1.91-2.99l-4.23-1.95c-.93-.43-2.02-.4-2.92.08l-6.01 3.15z" fill="#080717" data-color="1"></path>
        <path d="m246.25 166.71-.06 7.84 5.25-5.02c2.03-1.94 3.29-4.54 3.55-7.33.23-2.48-1.27-4.8-3.64-5.6l-20.15-7.13-.3 5.16a6.792 6.792 0 0 0 3.64 6.42l11.71 5.66z" fill="#ffffff" data-color="2"></path>
        <path d="M246.19 175.55c-.13 0-.27-.03-.4-.08a.983.983 0 0 1-.6-.93l.06-7.21-11.15-5.38a7.78 7.78 0 0 1-4.2-7.38l.3-5.16a.996.996 0 0 1 1.33-.88l20.15 7.13c2.8.95 4.58 3.68 4.3 6.64-.28 3.03-1.65 5.86-3.85 7.96l-5.25 5.02c-.19.17-.44.27-.69.27zm-14.07-24.69-.23 3.83a5.785 5.785 0 0 0 3.11 5.47l11.69 5.64c.35.17.57.52.56.91l-.04 5.47 3.54-3.38c1.85-1.77 3-4.15 3.24-6.7a4.369 4.369 0 0 0-2.96-4.56l-18.91-6.68z" fill="#080717" data-color="1"></path>
        <path d="m246.17 177.02-.06 7.84 5.25-5.02c2.03-1.94 3.29-4.54 3.55-7.33.23-2.48-1.27-4.8-3.64-5.6l-18.44-6.44-.3 5.16a6.792 6.792 0 0 0 3.64 6.42l10 4.97z" fill="#ffffff" data-color="2"></path>
        <path d="M246.11 185.86c-.13 0-.27-.03-.4-.08a.983.983 0 0 1-.6-.93l.05-7.21-9.45-4.7a7.799 7.799 0 0 1-4.19-7.37l.3-5.16c.02-.31.18-.6.44-.77.26-.17.59-.21.88-.11l18.44 6.44a6.35 6.35 0 0 1 4.3 6.64c-.28 3.03-1.65 5.86-3.85 7.96l-5.25 5.02c-.17.18-.41.27-.67.27zm-12.36-24.01-.23 3.84a5.802 5.802 0 0 0 3.11 5.47l9.99 4.97c.34.17.56.52.55.9l-.04 5.47 3.54-3.38c1.85-1.77 3-4.15 3.24-6.7a4.369 4.369 0 0 0-2.96-4.56l-17.2-6.01z" fill="#080717" data-color="1"></path>
        <path d="m246.1 186.82-.06 7.84 5.25-5.02c2.03-1.94 3.29-4.54 3.55-7.33.23-2.48-1.27-4.8-3.64-5.6l-16-5.4-.3 5.16a6.792 6.792 0 0 0 3.64 6.42l7.56 3.93z" fill="#ffffff" data-color="2"></path>
        <path d="M246.04 195.66c-.13 0-.27-.03-.4-.08a.983.983 0 0 1-.6-.93l.06-7.23-7.02-3.66a7.783 7.783 0 0 1-4.18-7.36l.3-5.16c.02-.31.18-.6.44-.77.26-.17.58-.22.88-.12l16 5.4c2.82.95 4.59 3.68 4.31 6.64-.28 3.03-1.65 5.86-3.85 7.96l-5.25 5.02c-.19.19-.44.29-.69.29zm-9.92-22.99-.23 3.85a5.794 5.794 0 0 0 3.1 5.47l7.57 3.94c.33.17.54.52.54.89l-.04 5.47 3.54-3.38c1.85-1.77 3-4.15 3.24-6.7a4.369 4.369 0 0 0-2.96-4.56l-14.76-4.98z" fill="#080717" data-color="1"></path>
        <path d="M55.58 188.26c-.55 0-1-.45-1-1v-25.27c0-.55.45-1 1-1s1 .45 1 1v25.27c0 .56-.45 1-1 1z" fill="#080717" data-color="1"></path>
        <path d="M68.22 175.63H42.95c-.55 0-1-.45-1-1s.45-1 1-1h25.27c.55 0 1 .45 1 1s-.45 1-1 1z" fill="#080717" data-color="1"></path>
        <path d="m158.13 101.33-19.85-32.58c-1.62-2.64-4.1-4.64-7.02-5.66L81.07 45.64a23.792 23.792 0 0 0-19.16 1.56L8.65 76.13c-10.2 5.54-10.2 20.18 0 25.72l4.36 2.37h97.88l9.84-11.33 37.4 8.44z" fill="#ffffff" data-color="2"></path>
        <path d="M62.6 101.14c-.2 0-.39-.06-.57-.18L40.86 86.35a32.365 32.365 0 0 0-16.35-5.66l-5.8-.36c-.55-.03-.97-.51-.94-1.06.03-.55.52-.95 1.06-.94l5.8.36c6.23.38 12.23 2.46 17.37 6L63.17 99.3c.45.31.57.94.25 1.39-.19.3-.5.45-.82.45z" fill="#080717" data-color="1"></path>
        <path d="M44.77 88.51c-.35 0-.69-.18-.87-.51a1 1 0 0 1 .38-1.36l30.64-17.27a1 1 0 0 1 .98 1.74L45.26 88.38c-.15.09-.32.13-.49.13z" fill="#080717" data-color="1"></path>
        <path d="M56.47 82.01c-.04 0-.08 0-.12-.01-.55-.06-.94-.56-.88-1.11.74-6.47-.43-11.63-3.5-15.34-4.34-5.26-11.11-5.83-11.18-5.83a.997.997 0 1 1 .15-1.99c.31.02 7.65.62 12.56 6.53 3.44 4.15 4.77 9.83 3.96 16.87-.05.5-.49.88-.99.88z" fill="#080717" data-color="1"></path>
        <path d="M110.89 105.22H13.01c-.17 0-.33-.04-.48-.12l-4.36-2.37C3.06 99.95 0 94.82 0 88.99c0-5.82 3.06-10.96 8.17-13.74l53.26-28.92c6.12-3.32 13.4-3.92 19.97-1.63l50.18 17.45c3.13 1.09 5.81 3.25 7.55 6.08l18.79 30.72 1.86 2.17a.999.999 0 1 1-1.52 1.3l-1.91-2.23c-.03-.04-.07-.08-.09-.13l-18.83-30.79c-1.49-2.44-3.8-4.3-6.5-5.23L80.74 46.59a22.86 22.86 0 0 0-18.36 1.5L9.13 77.01C4.66 79.43 2 83.91 2 88.99s2.66 9.56 7.13 11.98l4.14 2.25h97.17l9.54-10.99c.2-.23.49-.36.78-.34.3.01.58.15.76.39l7.21 9.35c.34.44.26 1.06-.18 1.4-.44.33-1.07.26-1.4-.18l-6.47-8.38-9.04 10.41a.98.98 0 0 1-.75.34z" fill="#080717" data-color="1"></path>
        <path d="M88.58 103.97h-5.94l3.83-3.95a8.794 8.794 0 0 1 5.58-2.65c1.88-.16 2.85.51 4.23 2.79l6.69 12.04-2.82.52c-2.01.37-4.07-.34-5.43-1.87l-6.14-6.88z" fill="#ffffff" data-color="2"></path>
        <path d="M99.1 113.82a6.91 6.91 0 0 1-5.14-2.3l-5.83-6.55h-5.49a1.004 1.004 0 0 1-.72-1.7l3.83-3.95a9.829 9.829 0 0 1 6.21-2.95c2.56-.23 3.79.98 5.17 3.27l6.71 12.07c.16.28.17.62.03.91-.14.29-.41.5-.72.56l-2.82.52c-.42.09-.83.12-1.23.12zM85 102.98h3.58c.29 0 .56.12.75.33l6.13 6.89a4.902 4.902 0 0 0 4.51 1.55l1.45-.27-6.02-10.82c-1.25-2.08-1.91-2.39-3.27-2.28-1.88.16-3.63 1-4.95 2.35L85 102.98z" fill="#080717" data-color="1"></path>
        <path d="M80.76 103.97h-5.94l3.83-3.95a8.794 8.794 0 0 1 5.58-2.65c1.88-.16 3.63.99 4.23 2.79l5.29 15.32-3.91.2c-2.03.1-3.92-.99-4.85-2.8l-4.23-8.91z" fill="#ffffff" data-color="2"></path>
        <path d="M89.56 116.7c-2.3 0-4.42-1.29-5.47-3.35l-3.96-8.37h-5.31a1.004 1.004 0 0 1-.72-1.7l3.83-3.95a9.805 9.805 0 0 1 6.21-2.95c2.36-.2 4.52 1.23 5.26 3.47l5.28 15.31a1.008 1.008 0 0 1-.9 1.33l-3.91.2c-.1 0-.2.01-.31.01zm-12.38-13.72h3.58c.39 0 .74.22.9.57l4.22 8.92a4.125 4.125 0 0 0 3.89 2.23l2.59-.13-4.85-14.06a3.059 3.059 0 0 0-3.2-2.12c-1.88.16-3.63 1-4.95 2.35l-2.18 2.24z" fill="#080717" data-color="1"></path>
        <path d="M72.94 103.97H67l3.83-3.95a8.794 8.794 0 0 1 5.58-2.65c1.88-.16 3.63.99 4.23 2.79l4.78 14.02-3.91.2c-2.03.1-3.92-.99-4.85-2.8l-3.72-7.61z" fill="#ffffff" data-color="2"></path>
        <path d="M81.24 115.39c-2.3 0-4.42-1.29-5.47-3.35l-3.45-7.07H67a1.004 1.004 0 0 1-.72-1.7l3.83-3.95a9.805 9.805 0 0 1 6.21-2.95c2.36-.2 4.52 1.23 5.26 3.47l4.77 14.01c.1.3.06.62-.12.88s-.46.42-.78.44l-3.91.2c-.1.02-.2.02-.3.02zm-11.88-12.41h3.58c.38 0 .73.22.9.56l3.71 7.61a4.131 4.131 0 0 0 3.9 2.24l2.59-.13-4.35-12.76a3.084 3.084 0 0 0-3.19-2.12c-1.88.16-3.63 1-4.95 2.35l-2.19 2.25z" fill="#080717" data-color="1"></path>
        <path d="M65.51 103.97h-5.94l3.83-3.95a8.794 8.794 0 0 1 5.58-2.65c1.88-.16 3.63.99 4.23 2.79l4.01 12.16-3.91.2c-2.03.1-3.92-.99-4.85-2.8l-2.95-5.75z" fill="#ffffff" data-color="2"></path>
        <path d="M73.03 113.54c-2.3 0-4.42-1.29-5.47-3.35l-2.66-5.21h-5.33a1.004 1.004 0 0 1-.72-1.7l3.83-3.95a9.829 9.829 0 0 1 6.21-2.95 5.057 5.057 0 0 1 5.26 3.47l4.01 12.16c.1.3.05.62-.12.88-.18.26-.46.42-.77.43l-3.91.2c-.12.02-.22.02-.33.02zm-11.1-10.56h3.58c.38 0 .72.21.89.54l2.94 5.76c.74 1.45 2.28 2.35 3.9 2.25l2.61-.13-3.6-10.92a3.08 3.08 0 0 0-3.19-2.11c-1.88.16-3.63 1-4.95 2.35l-2.18 2.26z" fill="#080717" data-color="1"></path>
        <path d="m123.03 42.33-7.16-3.67c-8.23-4.22-11.51-14.41-7.29-22.64l1.46-2.84c5.29-10.31 18.05-14.41 28.35-9.13l-.67 3.24c6.46 3.31 9.04 11.31 5.72 17.77l-6.57 12.82c-2.59 5.03-8.81 7.03-13.84 4.45z" fill="#080717" data-color="1"></path>
        <path fill="#080717" d="M139.79 11.404c7.6 7.14 8.323 18.716 1.614 25.857-6.708 7.14-18.307 7.141-25.906.002s-8.323-18.716-1.614-25.857c6.709-7.14 18.307-7.141 25.907-.002z" data-color="1"></path>
        <path d="M122.42 22.93c3.2-5.14 9.33-8.05 15-6.7 3.53.84 6.19 3.16 7.56 6.2-1.31-1.01-5.17-3.64-7.92-2.04-3.35 1.96-8.32 7.05-14.64 2.54z" fill="#080717" data-color="1"></path>
        <path d="M152.73 27.68c-2.13 4.15-7.22 5.79-11.37 3.66-4.15-2.13-5.79-7.22-3.66-11.37 2.13-4.15 7.22-5.79 11.37-3.66 4.15 2.13 5.79 7.22 3.66 11.37z" fill="#080717" data-color="1"></path>
        <path d="M134.2 4.85c-8.66-3.14-18.47.41-23.04 8.6 1.21 2.16 3.07 4.02 5.47 5.25 6.25 3.21 13.79.98 16.84-4.96 1.45-2.84 1.62-6.01.73-8.89z" fill="#080717" data-color="1"></path>
        <path d="M142.45 15.63c-2.13 4.15-7.22 5.79-11.37 3.66-4.15-2.13-5.79-7.22-3.66-11.37 2.13-4.15 7.22-5.79 11.37-3.66 4.15 2.13 5.79 7.22 3.66 11.37z" fill="#080717" data-color="1"></path>
        <path d="M151.02 20.5c-2.19 4.27-7.42 5.95-11.69 3.76s-5.95-7.42-3.76-11.69a8.679 8.679 0 0 1 11.69-3.76c4.26 2.19 5.95 7.42 3.76 11.69z" fill="#080717" data-color="1"></path>
        <path d="M123.25 7.09c-.07 0-.13-.01-.2-.02-.54-.11-.89-.64-.78-1.18.42-2.06-1.56-3.69-1.58-3.71a.99.99 0 0 1-.15-1.4 1 1 0 0 1 1.4-.16c.12.1 2.96 2.4 2.29 5.67-.1.47-.51.8-.98.8z" fill="#080717" data-color="1"></path>
        <path d="M123.65 7.06c-.34 0-.68-.18-.87-.5-1.68-2.89.28-5.98.36-6.11.3-.46.92-.6 1.38-.29.46.3.6.92.3 1.38-.02.02-1.37 2.2-.32 4.02.28.48.12 1.09-.36 1.37-.15.09-.32.13-.49.13z" fill="#080717" data-color="1"></path>
        <path d="m146.48 35.17.4-1.39c2.01-6.96-2-14.24-8.97-16.25-5.87-1.7-11.97.89-14.94 5.93a5.284 5.284 0 0 0-6.56 1.49 5.293 5.293 0 0 0-.34 5.96L98.25 49.87l-6.27-.38c-2.04 4.54-1.98 10.74.62 16.67 4.14 9.42 13.12 14.58 20.07 11.53 5.44-2.39 8-9.09 6.88-16.41l-1.85-1.46 6.38-6.79c.97.59 2.03 1.08 3.17 1.41 6.96 2.01 14.24-2 16.25-8.97l1.4-4.86c1.41.25 2.82-.58 3.23-1.99.43-1.42-.31-2.9-1.65-3.45z" fill="#ffffff" data-color="2"></path>
        <path d="M108.46 79.56c-6.42 0-13.28-5.05-16.77-13-2.62-5.97-2.85-12.51-.61-17.48.17-.38.57-.61.97-.59l5.8.35 17.02-18.11c-.95-2.1-.67-4.54.76-6.4a6.292 6.292 0 0 1 6.96-2.12c3.41-5.04 9.7-7.35 15.61-5.64 7.48 2.16 11.81 10.01 9.65 17.49l-.18.63c1.31.94 1.91 2.61 1.44 4.21a3.859 3.859 0 0 1-3.45 2.74l-1.18 4.1a14.064 14.064 0 0 1-6.75 8.45 14.022 14.022 0 0 1-13.45.09l-5.1 5.42 1 .79c.2.16.33.38.37.63 1.21 7.96-1.79 14.98-7.47 17.47-1.48.66-3.04.97-4.62.97zM92.63 50.53c-1.72 4.38-1.4 10.02.89 15.22 3.91 8.9 12.32 13.84 18.75 11.01 4.75-2.09 7.28-8.07 6.35-14.95l-1.54-1.22a.99.99 0 0 1-.38-.71c-.02-.28.08-.55.27-.76l6.38-6.79a1 1 0 0 1 1.25-.17c.94.57 1.93 1.01 2.93 1.3 3.11.9 6.39.53 9.22-1.03 2.84-1.56 4.89-4.14 5.79-7.25l1.4-4.86c.14-.49.63-.79 1.13-.71.93.17 1.84-.39 2.1-1.29.27-.91-.2-1.87-1.08-2.24a.999.999 0 0 1-.58-1.2l.4-1.39c.9-3.11.53-6.39-1.03-9.22a12.057 12.057 0 0 0-7.25-5.79c-5.32-1.54-10.99.71-13.8 5.47-.27.45-.84.62-1.31.38a4.297 4.297 0 0 0-5.32 1.21 4.253 4.253 0 0 0-.28 4.83c.23.38.18.87-.13 1.2L98.98 50.56c-.2.22-.5.32-.79.31l-5.56-.34z" fill="#080717" data-color="1"></path>
        <path d="M117.23 33.37c-.21 0-.43-.07-.61-.21-2.74-2.12-3.25-6.08-1.13-8.82.34-.44.97-.52 1.4-.18.44.34.52.96.18 1.4-1.45 1.87-1.1 4.57.77 6.02.44.34.52.97.18 1.4a1 1 0 0 1-.79.39z" fill="#080717" data-color="1"></path>
        <path d="M120.36 30.82c-.17 0-.35-.05-.51-.14a.995.995 0 0 1-.35-1.37c.78-1.32-.1-2.48-.11-2.49a1 1 0 0 1 .17-1.4 1 1 0 0 1 1.4.17c.07.09 1.72 2.25.25 4.74-.17.31-.5.49-.85.49z" fill="#080717" data-color="1"></path>
        <path d="M141.23 42.02c-1.24 0-3.41-.83-3.82-4.09-.07-.55.32-1.05.87-1.12.55-.06 1.05.32 1.12.87.28 2.26 1.62 2.35 1.89 2.33.55-.02 1.01.41 1.04.95a.984.984 0 0 1-.92 1.04c-.06.02-.12.02-.18.02z" fill="#080717" data-color="1"></path>
        <path d="M143.36 33.96c-.31.67-1.01 1-1.56.74s-.74-1.01-.43-1.67c.31-.67 1.01-1 1.56-.74s.74 1.01.43 1.67z" fill="#080717" data-color="1"></path>
        <path d="M144.06 29.29c.01.46-1.01.87-2.28.91-1.27.04-2.32-.3-2.33-.76-.01-.46 1.01-.87 2.28-.91 1.27-.04 2.32.3 2.33.76z" fill="#080717" data-color="1"></path>
        <path d="M133.76 16.46c-4.78-2.25-10.58-.74-13.63 3.69.58 1.3 1.54 2.46 2.85 3.29 3.4 2.16 7.83 1.29 9.89-1.94.98-1.55 1.25-3.35.89-5.04z" fill="#080717" data-color="1"></path>
        <path d="M124.24 54.16c-.18 0-.37-.05-.54-.16-5.23-3.34-7.67-9.85-5.95-15.81.15-.53.71-.83 1.24-.68.53.15.84.71.68 1.24-1.48 5.12.62 10.7 5.11 13.57.47.3.6.92.3 1.38-.19.3-.51.46-.84.46z" fill="#080717" data-color="1"></path>
        <path d="M118.61 43.01c-.05-.57-.08-1.13-.07-1.69-2.5 5.59-1.76 11.82 1.43 16.56l3.88-4.13c-2.9-2.79-4.84-6.51-5.24-10.74z" fill="#080717" data-color="1"></path>
        <path fill="#080717" d="M253.126 57.711c12.324.264 22.1 10.468 21.837 22.792s-10.468 22.102-22.792 21.838-22.101-10.468-21.838-22.793 10.469-22.1 22.793-21.837z" data-color="1"></path>
        <path d="M278.36 91.01c-.95-.32-1.92-.39-2.84-.23 2.73-8.36-.5-17.58-7.98-22.36-9.23-5.89-21.5-2.99-27.11 6.42L237.36 80c-4.91 8.24-.95 18.91 8.15 21.94l1.66.55-1.83 14.24-8.5-1.1c1.85 8.24 9.04 14.92 18.38 16.12 9.33 1.2 17.98-3.44 21.86-10.94l-10.41-1.34 1.9-14.76a10.4 10.4 0 0 0 3.31-4.43l.13-.33c.66.84 1.56 1.51 2.64 1.88 2.99 1.03 6.25-.57 7.28-3.56 1.01-2.97-.58-6.23-3.57-7.26z" fill="#ffffff" data-color="2"></path>
        <path d="M258.12 132.95c-1.01 0-2.02-.06-3.04-.2-9.5-1.23-17.23-8.02-19.22-16.9a1.009 1.009 0 0 1 1.11-1.21l7.51.97 1.6-12.43-.88-.29a15.962 15.962 0 0 1-9.95-9.62c-1.7-4.57-1.24-9.59 1.25-13.78l3.07-5.15c2.85-4.78 7.4-8.13 12.82-9.41 5.42-1.28 10.99-.34 15.68 2.66 7.42 4.74 10.91 13.68 8.8 22.13.62.03 1.23.15 1.81.35 1.7.58 3.07 1.79 3.86 3.41a6.7 6.7 0 0 1 .32 5.14c-1.2 3.51-5.04 5.38-8.55 4.18-.72-.25-1.39-.62-1.99-1.08-.69 1.35-1.65 2.55-2.82 3.54l-1.72 13.37 9.41 1.21a.997.997 0 0 1 .76 1.45c-3.73 7.21-11.46 11.66-19.83 11.66zm-19.94-16.13c2.27 7.37 8.99 12.9 17.16 13.95 8.16 1.06 16.06-2.59 20.13-9.14l-8.93-1.15a.995.995 0 0 1-.86-1.12l1.9-14.76c.03-.26.17-.5.38-.66a9.446 9.446 0 0 0 2.99-4l.13-.33c.13-.33.43-.58.79-.63.36-.05.71.09.93.37.56.72 1.32 1.26 2.18 1.55 2.47.85 5.16-.47 6.01-2.94.41-1.2.33-2.48-.23-3.61a4.665 4.665 0 0 0-2.71-2.39c-.75-.26-1.56-.32-2.34-.18-.35.06-.7-.07-.93-.33-.23-.27-.3-.63-.19-.97 2.6-7.97-.51-16.69-7.57-21.21-4.23-2.7-9.26-3.56-14.14-2.4-4.89 1.16-9 4.17-11.57 8.49l-3.07 5.15a13.992 13.992 0 0 0-1.1 12.06c1.49 4 4.66 7.07 8.71 8.42l1.66.55c.45.15.74.6.67 1.08l-1.83 14.24c-.07.55-.58.92-1.12.86l-7.05-.9z" fill="#080717" data-color="1"></path>
        <path d="M273.68 98.04c-.11 0-.22-.02-.32-.05-.52-.18-.8-.75-.62-1.27.94-2.73 3.92-4.19 6.64-3.25.52.18.8.75.62 1.27-.18.52-.75.8-1.27.62a3.22 3.22 0 0 0-4.1 2.01c-.15.41-.53.67-.95.67z" fill="#080717" data-color="1"></path>
        <path d="M247.9 81.93a.996.996 0 0 1-.65-1.75l3.6-3.14c.88-.77 1.39-1.88 1.38-3.05 0-1.17-.51-2.28-1.4-3.05-.03-.03-.06-.05-.08-.08-.05-.05-1.54-1.52-4.87-.47a.992.992 0 0 1-1.25-.65.992.992 0 0 1 .65-1.25c4.27-1.34 6.51.6 6.89.96a6.044 6.044 0 0 1 2.07 4.53c0 1.75-.75 3.42-2.07 4.57l-3.6 3.14c-.2.16-.44.24-.67.24z" fill="#080717" data-color="1"></path>
        <path d="M262.52 80.79c-.82.81-1.87.94-2.35.28-.48-.66-.2-1.85.63-2.66.82-.81 1.87-.94 2.35-.28.47.66.19 1.85-.63 2.66z" fill="#080717" data-color="1"></path>
        <path d="M247.89 76.81c-.82.81-1.87.94-2.35.28-.48-.66-.2-1.85.62-2.67.82-.81 1.87-.94 2.35-.28.48.66.2 1.85-.62 2.67z" fill="#080717" data-color="1"></path>
        <path d="m246.65 83.49 10.69 1.43s-7.35 11.64-10.69-1.43z" fill="#ffffff" data-color="2"></path>
        <path d="M251.28 90.69c-.2 0-.4-.01-.59-.05-2.27-.36-3.91-2.62-5.01-6.91-.08-.32 0-.66.22-.91s.55-.37.88-.33l10.69 1.43c.34.04.63.26.77.57.14.31.12.67-.06.96-.35.57-3.41 5.24-6.9 5.24zm-3.24-6.01c.8 2.41 1.83 3.81 2.96 3.99 1.51.22 3.37-1.54 4.54-2.99l-7.5-1z" fill="#080717" data-color="1"></path>
        <path d="M275.73 90.02c2.25-7.99-.82-16.59-7.78-21.3-1.44 7.54 1.64 15.45 7.78 21.3z" fill="#080717" data-color="1"></path>
        <path d="M269.67 82.2c-.47 0-.89-.34-.98-.82-1.01-5.54-7.24-6.9-7.51-6.95-.54-.11-.89-.64-.78-1.18.11-.54.64-.89 1.18-.78.32.06 7.81 1.67 9.07 8.55.1.54-.26 1.06-.8 1.16-.06.02-.12.02-.18.02z" fill="#080717" data-color="1"></path>
        <path d="M248.15 103.53c-.37 0-.73-.01-1.07-.04a.998.998 0 0 1-.91-1.08c.05-.55.53-.97 1.08-.91 3.78.33 10.59-1.66 10.66-1.68a.994.994 0 0 1 1.24.68.998.998 0 0 1-.68 1.24c-.27.08-6.15 1.79-10.32 1.79z" fill="#080717" data-color="1"></path>
        <path d="M270.75 185.02c-.52 0-.96-.4-1-.93l-1.77-24.94c-.04-.55.38-1.03.93-1.07.55-.04 1.03.38 1.07.93l1.77 24.94c.04.55-.38 1.03-.93 1.07h-.07z" fill="#080717" data-color="1"></path>
    </g>
</svg>