<svg preserveAspectRatio="none" data-bbox="0 0 512 512" xmlns="http://www.w3.org/2000/svg" width="512" viewBox="0 0 512 512" height="512" data-type="shape" role="presentation" aria-hidden="true">
    <g>
        <path d="m388.408 173.173 13.129-11.537-11.703-20.271-16.579 5.609a14.993 14.993 0 0 1-14.49-2.754 72.629 72.629 0 0 0-22.331-12.916 15 15 0 0 1-9.623-11.169L323.384 103h-23.406l-3.426 17.134a15.002 15.002 0 0 1-9.624 11.171 72.643 72.643 0 0 0-22.332 12.916 14.999 14.999 0 0 1-14.489 2.753l-16.579-5.609-11.703 20.271 13.13 11.538a15 15 0 0 1 4.865 13.903 73.924 73.924 0 0 0 0 25.848 15 15 0 0 1-4.865 13.903l-13.13 11.538 11.703 20.27 16.579-5.609a14.997 14.997 0 0 1 14.489 2.753 72.643 72.643 0 0 0 22.332 12.916 15.002 15.002 0 0 1 9.624 11.171L299.978 297h23.406l3.427-17.135a15 15 0 0 1 9.623-11.169 72.629 72.629 0 0 0 22.331-12.916 15 15 0 0 1 14.49-2.754l16.579 5.609 11.703-20.271-13.129-11.537a15 15 0 0 1-4.865-13.903 73.996 73.996 0 0 0 0-25.848 15 15 0 0 1 4.865-13.903zM311.681 247c-25.916 0-47-21.084-47-47s21.084-47 47-47 47 21.084 47 47-21.084 47-47 47z"></path>
        <path d="M312 0C201.72 0 112 89.72 112 200c0 49.753 18.266 95.317 48.438 130.35L132 358.787l-9.394-9.393c-5.857-5.857-15.355-5.857-21.213 0l-97 97c-5.858 5.857-5.858 15.355 0 21.213l40 40c5.858 5.858 15.355 5.858 21.213 0l97-97c5.858-5.857 5.858-15.355 0-21.213L153.213 380l28.438-28.438C216.683 381.734 262.247 400 312 400c110.28 0 200-89.72 200-200S422.28 0 312 0zm102.238 209.589 16.339 14.358a15.001 15.001 0 0 1 3.089 18.768l-24 41.57a14.999 14.999 0 0 1-17.797 6.709l-20.606-6.972a102.249 102.249 0 0 1-16.61 9.607l-4.263 21.312a15 15 0 0 1-14.709 12.058h-48a15 15 0 0 1-14.709-12.059l-4.262-21.311a102.416 102.416 0 0 1-16.611-9.607l-20.606 6.972a15 15 0 0 1-17.797-6.709l-24-41.57a15.001 15.001 0 0 1 3.089-18.768l16.34-14.358a103.943 103.943 0 0 1 0-19.178l-16.34-14.358a15.001 15.001 0 0 1-3.089-18.768l24-41.57a15 15 0 0 1 17.797-6.709l20.606 6.972a102.27 102.27 0 0 1 16.611-9.607l4.262-21.311A15 15 0 0 1 287.681 73h48a15 15 0 0 1 14.709 12.058l4.263 21.312a102.396 102.396 0 0 1 16.61 9.607l20.606-6.972a15 15 0 0 1 17.797 6.709l24 41.57a15.001 15.001 0 0 1-3.089 18.768l-16.339 14.358c.572 6.197.608 12.601 0 19.179z"></path>
        <path d="M328.681 200c0 9.389-7.611 17-17 17s-17-7.611-17-17 7.611-17 17-17 17 7.611 17 17z"></path>
    </g>
</svg>