<svg preserveAspectRatio="none" data-bbox="72.005 0 368 512.01" xmlns="http://www.w3.org/2000/svg" width="512" viewBox="72.005 0 368 512.01" height="512" data-type="shape" role="presentation" aria-hidden="true" aria-label="">
    <g>
        <path d="m262.204 161.508-6.199-13.206-6.199 13.206a15.001 15.001 0 0 1-11.312 8.455l-15.366 2.348 11.614 11.903a14.998 14.998 0 0 1 4.068 12.89l-2.582 15.824 12.52-6.921a15.002 15.002 0 0 1 14.514 0l12.52 6.921-2.582-15.824a14.998 14.998 0 0 1 4.068-12.89l11.614-11.903-15.366-2.348a14.999 14.999 0 0 1-11.312-8.455z"></path>
        <path d="M256.005 71c-62.309 0-113 50.691-113 113s50.691 113 113 113 113-50.691 113-113-50.691-113-113-113zm74.736 101.367-26.713 27.379 6.336 38.839c2.019 12.378-11.177 21.56-22.062 15.543l-32.298-17.854-32.298 17.854c-10.909 6.031-24.08-3.167-22.062-15.543l6.336-38.839-26.713-27.379c-8.51-8.723-3.583-23.46 8.471-25.303l36.311-5.548 16.377-34.889c5.382-11.469 21.762-11.494 27.156 0l16.377 34.889 36.31 5.548c12.047 1.841 16.988 16.575 8.472 25.303z"></path>
        <path d="M256.005 0c-101.621 0-184 82.38-184 184s82.379 184 184 184 184-82.38 184-184-82.379-184-184-184zm0 327c-78.851 0-143-64.149-143-143s64.149-143 143-143 143 64.149 143 143-64.15 143-143 143z"></path>
        <path d="M171.005 497c0 10.375 10.293 17.607 20.045 14.126l49.955-27.841v-85.809c-24.402-1.678-47.999-7.448-70-16.971z"></path>
        <path d="m271.005 483.285 49.955 27.841c9.704 3.468 20.045-3.71 20.045-14.126V380.505c-22.001 9.523-45.598 15.293-70 16.971z"></path>
    </g>
</svg>