<svg preserveAspectRatio="none" data-bbox="49.002 0 414 512.004" xmlns="http://www.w3.org/2000/svg" width="512" viewBox="49.002 0 414 512.004" height="512" data-type="shape" role="presentation" aria-hidden="true" aria-label="">
    <g>
        <path d="M448.002 0h-384c-8.284 0-15 6.716-15 15v27c0 8.284 6.716 15 15 15h384c8.284 0 15-6.716 15-15V15c0-8.284-6.716-15-15-15z"></path>
        <path d="M448.002 359h-384c-8.284 0-15 6.716-15 15v26c0 8.284 6.716 15 15 15h111.841l-37.285 75.347c-4.964 10.03 2.43 21.656 13.433 21.656 5.524 0 10.839-3.064 13.455-8.351L209.315 415h31.687v82c0 8.284 6.716 15 15 15s15-6.716 15-15v-82h31.687l43.87 88.653c2.616 5.287 7.931 8.351 13.455 8.351 10.996 0 18.398-11.622 13.433-21.656L336.16 415h111.841c8.284 0 15-6.716 15-15v-26c.001-8.284-6.715-15-14.999-15z"></path>
        <path d="M295.38 259.668c11.742-8.971 20.339-21.844 23.856-36.668h-40.152z"></path>
        <path d="M271.002 144.766V193h48.234c-5.649-23.812-24.422-42.585-48.234-48.234z"></path>
        <path d="M73.002 87v242h366V87zm183 216c-52.383 0-95-42.617-95-95s42.617-95 95-95 95 42.617 95 95-42.617 95-95 95z"></path>
        <path d="M242.301 214.089a14.928 14.928 0 0 1-1.3-6.089v-63.234c-28.631 6.792-50 32.556-50 63.234 0 40.454 36.817 71.39 76.975 63.875-25.898-58.27-25.775-57.742-25.675-57.786z"></path>
    </g>
</svg>