<svg preserveAspectRatio="none" data-bbox="65 0 382 512" xmlns="http://www.w3.org/2000/svg" width="512" viewBox="65 0 382 512" height="512" data-type="shape" role="presentation" aria-hidden="true" aria-label="">
    <g>
        <path d="M359 8.836V89h79.263z"></path>
        <path d="M175 343h34v34h-34z"></path>
        <path d="M239 377h34v-90h-34z"></path>
        <path d="M344 119c-8.284 0-15-6.716-15-15V0H80c-8.284 0-15 6.716-15 15v482c0 8.284 6.716 15 15 15h352c8.284 0 15-6.716 15-15V119zM144 97h72c8.284 0 15 6.716 15 15s-6.716 15-15 15h-72c-8.284 0-15-6.716-15-15s6.716-15 15-15zm0 56h72c8.284 0 15 6.716 15 15s-6.716 15-15 15h-72c-8.284 0-15-6.716-15-15s6.716-15 15-15zm232 254H144c-8.284 0-15-6.716-15-15s6.716-15 15-15h1v-49c0-8.284 6.716-15 15-15h49v-41c0-8.284 6.716-15 15-15h49v-41c0-8.284 6.716-15 15-15h64c8.284 0 15 6.716 15 15v161h9c8.284 0 15 6.716 15 15s-6.716 15-15 15z"></path>
        <path d="M303 377h34V231h-34z"></path>
    </g>
</svg>