<svg preserveAspectRatio="none" data-bbox="0 0 512 512" xmlns="http://www.w3.org/2000/svg" width="512" viewBox="0 0 512 512" height="512" data-type="shape" role="presentation" aria-hidden="true" aria-label="">
    <g>
        <path d="M0 392c0 22.091 17.909 40 40 40h169v50h-17c-8.284 0-15 6.716-15 15s6.716 15 15 15h128c8.284 0 15-6.716 15-15s-6.716-15-15-15h-17v-50h169c22.091 0 40-17.909 40-40v-24H0z"></path>
        <path d="M327 145.414v31.652h31.652c-4.826-14.976-16.676-26.826-31.652-31.652z"></path>
        <path d="M185 177.066v-31.652c-14.976 4.826-26.826 16.676-31.652 31.652z"></path>
        <path d="M255.998 0c-11.703 6.731-36.439 23.75-40.432 49.066h80.868C292.442 23.76 267.723 6.743 255.998 0z"></path>
        <path d="M239 207.066v65.942c0 9.79-9.25 16.969-18.739 14.526-8.974-2.311-18.096 3.035-20.599 11.772-2.734 9.546-13.86 13.864-22.321 8.619A32.891 32.891 0 0 0 160 303c-18.664 0-33.552 15.503-32.985 34h257.97c.568-18.522-14.348-34-32.985-34a32.891 32.891 0 0 0-17.341 4.925c-8.441 5.232-19.581.951-22.321-8.619-2.501-8.73-11.618-14.084-20.599-11.772-9.482 2.439-18.739-4.724-18.739-14.526v-65.942z"></path>
        <path d="M178.464 275.762c7.34-9.702 18.301-16.369 30.536-18.232v-50.464h-73c-8.284 0-15-6.716-15-15 0-38.431 27.59-70.524 64-77.553V56.066A75.681 75.681 0 0 1 188.261 34H40C17.909 34 0 51.909 0 74v264h97.042c-1.361-43.164 40.225-74.862 81.422-62.238z"></path>
        <path d="m472 34-147.897 1.256A75.683 75.683 0 0 1 327 56.066v58.447c36.409 7.029 64 39.122 64 77.553 0 8.284-6.716 15-15 15h-73v50.464c12.235 1.863 23.196 8.53 30.536 18.232 41.132-12.604 82.785 19.007 81.422 62.238H512V74c0-22.091-17.909-40-40-40z"></path>
        <path d="M297 79.066h-82v98h82zm-41 64c-8.284 0-15-6.716-15-15s6.716-15 15-15 15 6.716 15 15-6.716 15-15 15z"></path>
    </g>
</svg>