<svg fill="#FFBF23" preserveAspectRatio="xMidYMid meet" data-bbox="0 17 512 478" xmlns="http://www.w3.org/2000/svg" width="512" viewBox="0 17 512 478" height="512" data-type="shape" role="presentation" aria-hidden="true" aria-label="">
    <g>
        <path d="M0 375c0 22.091 17.909 40 40 40h169v50h-17c-8.284 0-15 6.716-15 15s6.716 15 15 15h128c8.284 0 15-6.716 15-15s-6.716-15-15-15h-17v-50h169c22.091 0 40-17.909 40-40v-24H0z"></path>
        <path d="M472 17H40C17.909 17 0 34.909 0 57v264h512V57c0-22.091-17.909-40-40-40zM202.606 198.393c5.858 5.858 5.858 15.355 0 21.213-5.854 5.857-15.355 5.86-21.213 0l-40-40c-5.858-5.857-5.858-15.354 0-21.213l40-40c5.857-5.858 15.355-5.858 21.213 0s5.858 15.355 0 21.213l-29.393 29.393zm84.037-98.14-32 144c-1.554 6.991-7.753 11.75-14.629 11.75-9.591 0-16.742-8.876-14.657-18.258l32-144c1.798-8.086 9.806-13.182 17.897-11.389 8.087 1.797 13.186 9.81 11.389 17.897zm83.963 79.352-40 40c-5.855 5.857-15.355 5.86-21.213 0-5.858-5.857-5.858-15.354 0-21.213l29.394-29.394-29.394-29.393c-5.858-5.857-5.858-15.354 0-21.213 5.857-5.858 15.355-5.858 21.213 0l40 40c5.859 5.859 5.859 15.356 0 21.213z"></path>
    </g>
</svg>