<svg fill="#FFBF23" preserveAspectRatio="xMidYMid meet" data-bbox="0 16.755 512 478.49" xmlns="http://www.w3.org/2000/svg" width="512" viewBox="0 16.755 512 478.49" height="512" data-type="shape" role="presentation" aria-hidden="true" aria-label="">
    <g>
        <path d="M497 430.245H15c-8.284 0-15 6.716-15 15v3c0 25.916 21.084 47 47 47h418c25.916 0 47-21.084 47-47v-3c0-8.285-6.716-15-15-15z"></path>
        <path d="M273 128.755c0 9.389-7.611 17-17 17s-17-7.611-17-17 7.611-17 17-17 17 7.611 17 17z"></path>
        <path d="m150.284 169.65 17.442 30.21a8 8 0 0 0 9.492 3.578l22.014-7.447a87.905 87.905 0 0 0 26.929 15.572l4.552 22.761a8 8 0 0 0 7.845 6.431h34.883a8 8 0 0 0 7.845-6.431l4.552-22.761a87.894 87.894 0 0 0 26.929-15.572l22.014 7.447a8.001 8.001 0 0 0 9.492-3.578l17.442-30.21a8 8 0 0 0-1.647-10.009l-17.44-15.327a88.924 88.924 0 0 0 0-31.118l17.44-15.327a8 8 0 0 0 1.647-10.009l-17.442-30.21a8 8 0 0 0-9.492-3.578l-22.014 7.447a87.905 87.905 0 0 0-26.929-15.572l-4.552-22.761a8 8 0 0 0-7.845-6.431h-34.883a8 8 0 0 0-7.845 6.431l-4.552 22.761a87.894 87.894 0 0 0-26.929 15.572l-22.014-7.447a8.001 8.001 0 0 0-9.492 3.578l-17.442 30.21a8 8 0 0 0 1.647 10.009l17.44 15.326a88.93 88.93 0 0 0 0 31.119l-17.44 15.327a8.001 8.001 0 0 0-1.647 10.009zM256 81.755c25.916 0 47 21.084 47 47s-21.084 47-47 47-47-21.084-47-47 21.084-47 47-47z"></path>
        <path d="M118.818 174.245H103v156h306v-156h-15.818c-1.283 3.513-.502 1.774-26.206 46.296-7.15 12.385-22.052 18.001-35.594 13.418l-13.656-4.619a117.549 117.549 0 0 1-5.482 3.17l-2.826 14.13c-2.805 14.022-15.117 24.116-29.417 24.116h-48c-14.3 0-26.613-10.094-29.418-24.116l-2.826-14.13a116.68 116.68 0 0 1-5.482-3.171l-13.656 4.62c-13.602 4.6-28.472-1.081-35.594-13.418-26.092-45.192-24.969-42.905-26.207-46.296z"></path>
        <path d="M479 144.245c0-22.091-17.909-40-40-40h-45.983a29.908 29.908 0 0 1-8.218 11.83l-10.841 9.527c.055 2.075.057 4.148 0 6.307 11.326 9.954 11.888 10.329 13.642 12.336H424c8.284 0 15 6.716 15 15v186c0 8.284-6.716 15-15 15H88c-8.284 0-15-6.716-15-15v-186c0-8.284 6.716-15 15-15h36.4c1.704-1.95 1.887-2.005 13.642-12.336a118.409 118.409 0 0 1 0-6.307l-10.84-9.526a29.91 29.91 0 0 1-8.219-11.831H73c-22.091 0-40 17.909-40 40v256h446z"></path>
    </g>
</svg>