<svg fill="#FFBF23" preserveAspectRatio="xMidYMid meet" data-bbox="0 0 512.034 512.035" xmlns="http://www.w3.org/2000/svg" width="512" viewBox="0 0 512.034 512.035" height="512" data-type="shape" role="presentation" aria-hidden="true" aria-label="">
    <g>
        <path d="M472.017 88.017c0 26.51-21.49 48-48 48s-48-21.49-48-48 21.49-48 48-48 48 21.49 48 48z"></path>
        <path d="M136.017 88.017c0 26.51-21.49 48-48 48s-48-21.49-48-48 21.49-48 48-48 48 21.49 48 48z"></path>
        <path d="M472.017 424.017c0 26.51-21.49 48-48 48s-48-21.49-48-48 21.49-48 48-48 48 21.49 48 48z"></path>
        <path d="M136.017 424.017c0 26.51-21.49 48-48 48s-48-21.49-48-48 21.49-48 48-48 48 21.49 48 48z"></path>
        <path d="M328.017 153.017c-8.284 0-15 6.716-15 15v4.578l-42 11.913v127.019l42 11.913v4.578c0 8.284 6.716 15 15 15s15-6.716 15-15v-65h9c8.284 0 15-6.716 15-15s-6.716-15-15-15h-9v-65c0-8.285-6.715-15.001-15-15.001z"></path>
        <path d="M241.017 193.017h-41c-30.327 0-55 24.673-55 55 0 29.203 22.88 53.152 51.654 54.889l12.924 45.232c2.277 7.969 10.583 12.578 18.543 10.302 7.966-2.275 12.578-10.578 10.302-18.544l-10.537-36.879h13.114z"></path>
        <path d="M138.382 28.525a78.46 78.46 0 0 1 19.062 24.01c61.139-29.679 134.55-30.386 197.147 0a78.476 78.476 0 0 1 19.062-24.01c-73.307-38.012-161.884-38.054-235.271 0z"></path>
        <path d="M483.51 138.382a78.46 78.46 0 0 1-24.01 19.062c29.675 61.132 30.39 134.541 0 197.146a78.49 78.49 0 0 1 24.01 19.062c38.013-73.307 38.053-161.884 0-235.27z"></path>
        <path d="M52.535 157.444a78.49 78.49 0 0 1-24.01-19.062c-38.012 73.306-38.054 161.884 0 235.271a78.476 78.476 0 0 1 24.01-19.062c-29.675-61.132-30.39-134.542 0-197.147z"></path>
        <path d="M354.591 459.5c-61.139 29.679-134.55 30.386-197.147 0a78.49 78.49 0 0 1-19.062 24.01c73.307 38.012 161.884 38.054 235.271 0a78.46 78.46 0 0 1-19.062-24.01z"></path>
    </g>
</svg>