<svg  fill="#FFBF23" preserveAspectRatio="xMidYMid meet" data-bbox="0 0 512 512" xmlns="http://www.w3.org/2000/svg" width="512" viewBox="0 0 512 512" height="512" data-type="shape" role="presentation" aria-hidden="true" aria-label="">
    <g>
        <path d="M497 241h-49c-8.284 0-15 6.716-15 15s6.716 15 15 15h49c8.284 0 15-6.716 15-15s-6.716-15-15-15z"></path>
        <path d="M79 256c0-8.284-6.716-15-15-15H15c-8.284 0-15 6.716-15 15s6.716 15 15 15h49c8.284 0 15-6.716 15-15z"></path>
        <path d="M256 79c8.284 0 15-6.716 15-15V15c0-8.284-6.716-15-15-15s-15 6.716-15 15v49c0 8.284 6.716 15 15 15z"></path>
        <path d="M256 433c-8.284 0-15 6.716-15 15v49c0 8.284 6.716 15 15 15s15-6.716 15-15v-49c0-8.284-6.716-15-15-15z"></path>
        <path d="M301 206c0 24.853-20.147 45-45 45s-45-20.147-45-45 20.147-45 45-45 45 20.147 45 45z"></path>
        <path d="M203.024 259.039C182.349 274.959 169 299.948 169 328v8c0 8.284 6.716 15 15 15h144c8.284 0 15-6.716 15-15v-8c0-28.052-13.349-53.041-34.024-68.961-29.309 29.275-76.622 29.295-105.952 0z"></path>
        <path d="M301 451.918v30.724c91.378-17.947 163.69-90.24 181.641-181.642h-30.724C434.752 375.767 375.767 434.752 301 451.918z"></path>
        <path d="M211 60.082V29.359C119.622 47.305 47.31 119.598 29.359 211h30.724C77.248 136.233 136.233 77.248 211 60.082z"></path>
        <path d="M451.918 211h30.724C464.695 119.622 392.402 47.31 301 29.359v30.724C375.767 77.248 434.752 136.233 451.918 211z"></path>
        <path d="M60.082 301H29.359C47.305 392.378 119.598 464.69 211 482.641v-30.724C136.233 434.752 77.248 375.767 60.082 301z"></path>
    </g>
</svg>